<?xml version="1.0" standalone="no"?>
<!DOCTYPE svg PUBLIC "-//W3C//DTD SVG 1.1//EN" "http://www.w3.org/Graphics/SVG/1.1/DTD/svg11.dtd" >
<svg xmlns="http://www.w3.org/2000/svg">
<metadata></metadata>
<defs>
<font id="old_standard_ttitalic" horiz-adv-x="901" >
<font-face units-per-em="2048" ascent="1561" descent="-487" />
<missing-glyph horiz-adv-x="573" />
<glyph horiz-adv-x="2048" />
<glyph horiz-adv-x="2048" />
<glyph unicode="&#xd;" horiz-adv-x="681" />
<glyph unicode=" "  horiz-adv-x="573" />
<glyph unicode="&#x09;" horiz-adv-x="573" />
<glyph unicode="&#xa0;" horiz-adv-x="573" />
<glyph unicode="!" horiz-adv-x="573" d="M115 102.5q0 55.5 35.5 91t91 35.5t91.5 -35.5t36 -91t-36 -91.5t-91.5 -36t-91 36t-35.5 91.5zM266 324l74 415q25 141 39 271q18 154 39 268q29 143 143 143q53 0 80 -37.5t27 -105.5q0 -78 -119 -348q-66 -152 -90 -221l-144 -385h-49z" />
<glyph unicode="&#x22;" horiz-adv-x="806" d="M352 1065l41 299q16 131 103 131q49 0 49 -53q0 -25 -17 -68l-127 -309h-49zM667 1065l41 299q16 131 103 131q49 0 49 -53q0 -25 -17 -68l-127 -309h-49z" />
<glyph unicode="#" horiz-adv-x="1400" d="M115 401l22 82h248l193 439h-322l23 82h333l168 397h90l-170 -397h299l170 397h91l-170 -397h272l-23 -82h-282l-189 -439h346l-22 -82h-363l-170 -401h-90l170 401h-297l-172 -401h-90l172 401h-237zM475 483h303l189 439h-299z" />
<glyph unicode="$" horiz-adv-x="1187" d="M102 291q0 86 47.5 151.5t116.5 65.5q47 0 79 -24.5t32 -71.5q0 -39 -29 -69t-84 -30q-35 0 -51 -30q-12 -18 -12 -54q0 -57 41 -105t112 -73l178 662l-55 30q-47 27 -75.5 53.5t-51 82t-22.5 131.5q0 84 34.5 157.5t94 122.5t127 82t141.5 49l37 140h65l-34 -129 q14 2 38 2q41 0 74 -7l37 134h66l-39 -146q113 -35 180.5 -115.5t67.5 -169.5q0 -106 -49.5 -166.5t-131.5 -60.5q-35 0 -66.5 20.5t-31.5 63.5q0 41 26.5 69.5t67.5 37.5q49 10 70 24q25 16 24 62q0 47 -47 96t-129 74l-159 -592l67 -39q35 -18 57.5 -34.5t49 -43.5 t43 -57.5t26.5 -75.5t10 -102q0 -152 -130 -275t-334 -156l-39 -139h-66l37 133q-18 -2 -53 -2q-25 0 -62 4l-37 -135h-65l41 150q-111 35 -172.5 122t-61.5 183zM416 37q37 -4 59 -4q37 0 53 2l160 588l-98 57zM442 1083q0 -125 82 -172l54 -30l127 471q-49 -12 -93.5 -35 t-84.5 -54.5t-62.5 -78t-22.5 -101.5zM596 43q141 27 221 111t80 202q0 51 -9 89t-27.5 60.5t-32 35t-37.5 24.5l-46 27zM635 848l98 -57l156 573q-45 4 -70 4q-29 0 -45 -2z" />
<glyph unicode="%" horiz-adv-x="1761" d="M262 946q0 59 18.5 126t53.5 130.5t82 115.5t112.5 84t135.5 32q74 0 127 -50.5t67 -134.5q14 -31 70.5 -48t103.5 -17q115 0 237 63.5t201 151.5l66 84l49 -49l-1200 -1483l-49 49l983 1214l-10 5q-66 -39 -140.5 -61.5t-136.5 -22.5q-90 0 -168 36q-2 -74 -31.5 -156.5 t-81 -153t-127 -118t-161.5 -47.5q-90 0 -145.5 69.5t-55.5 180.5zM410 946q0 -82 34.5 -125t79.5 -43q78 0 143.5 59.5t101.5 157t38 209.5q-41 29 -64.5 66t-23.5 65.5t12 40.5q-16 8 -39 8q-119 0 -200.5 -131t-81.5 -307zM1024 217q0 59 18.5 126t53 130.5t82 115.5 t113 84t134.5 32q90 0 145.5 -70t55.5 -180q0 -59 -18.5 -126t-53 -130.5t-82 -115.5t-113 -84t-134.5 -32q-90 0 -145.5 69.5t-55.5 180.5zM1171 217q0 -82 35 -125t80 -43q119 0 201 131t82 307q0 82 -35 125t-80 43q-119 0 -201 -131t-82 -307z" />
<glyph unicode="&#x26;" horiz-adv-x="1515" d="M115 264q0 94 39 182.5t96 150.5t129 115.5t131 83t106 46.5l119 43q10 98 41 194.5t80 177t123 131t156 50.5q49 0 83.5 -19.5t51 -49.5t23.5 -58.5t7 -57.5q0 -57 -22.5 -107t-54 -83t-76.5 -61.5t-78 -43t-70 -26.5l-120 -43v-543l358 475q90 117 180 117 q66 0 98.5 -40t32.5 -99q0 -37 -22.5 -73t-71.5 -36q-25 0 -45 13.5t-20 48.5q0 33 26 59q23 23 23 41q0 12 -11.5 22.5t-29.5 10.5q-20 0 -39 -12.5t-33 -29t-43 -48.5l-401 -508v-50.5t2 -49t6 -50t12 -43t20.5 -38t30 -22.5t39.5 -9q45 0 104.5 47t113 115.5t92 127 t59.5 99.5l37 -21q-16 -33 -35 -66.5t-51.5 -88t-69.5 -98.5t-80 -86t-92 -66.5t-98 -24.5q-53 0 -94 15.5t-65 44t-37 57.5t-23 67q-35 -37 -62.5 -61.5t-72 -57t-95.5 -49t-106 -16.5q-131 0 -216 78t-85 223zM311 254q0 -113 39 -171t111 -58q43 0 84 14t77.5 43 t60.5 52.5t56 60.5q-8 25 -8 73v563l-74 -26q-164 -59 -255 -207.5t-91 -343.5zM879 934l100 37q41 12 78 31.5t79 52t66.5 83t24.5 113.5q0 27 -6.5 51.5t-30 49t-60.5 24.5q-29 0 -61.5 -13t-67 -46t-61.5 -81t-44 -127t-17 -175z" />
<glyph unicode="'" horiz-adv-x="491" d="M352 1065l41 299q16 131 103 131q49 0 49 -53q0 -25 -17 -68l-127 -309h-49z" />
<glyph unicode="(" horiz-adv-x="757" d="M172 188q0 190 56.5 384t154.5 361t225 310t273 252l49 -49q-125 -102 -228.5 -215t-171 -213t-119 -205.5t-80 -191.5t-46 -173.5t-22.5 -145.5t-5 -114q0 -147 49 -290.5t135 -253.5l-65 -50q-88 104 -146.5 266t-58.5 328z" />
<glyph unicode=")" horiz-adv-x="757" d="M-127 -356q125 102 228.5 214.5t171 213t118.5 206t80 191.5t46.5 173t22.5 145.5t5 113.5q0 147 -49.5 290.5t-135.5 254.5l66 49q88 -104 146.5 -266t58.5 -328q0 -190 -56.5 -383.5t-154.5 -360.5t-225 -310.5t-273 -252.5z" />
<glyph unicode="*" horiz-adv-x="1187" d="M332 842q0 78 137 96q72 8 152 53l10 8q10 8 10 14.5t-10 14.5l-10 8q-80 45 -152 54q-137 18 -137 96q0 31 20 51q20 25 56 25q55 0 114 -80q39 -51 115 -101q18 -12 29 -12q16 0 16 31q0 84 -29 157q-25 57 -24 89q0 39 20 63q23 25 57.5 25t57.5 -25q20 -25 20 -63 q0 -31 -24 -89q-29 -74 -29 -157q0 -31 17 -31q10 0 28 12q76 49 115 101q59 80 115 80q35 0 55 -25q20 -20 20 -51q0 -78 -137 -96q-72 -8 -151 -54l-11 -8q-10 -8 -10 -14t10 -15l11 -8q80 -45 151 -53q137 -18 137 -96q0 -31 -20 -51q-20 -25 -55 -25q-55 0 -115 80 q-39 51 -115 100q-18 12 -28 12q-16 0 -17 -30q0 -84 29 -158q25 -57 24 -88q0 -39 -20 -64q-23 -25 -57.5 -24.5t-57.5 24.5q-20 25 -20 64q0 31 24 88q29 74 29 158q0 31 -16 30q-10 0 -29 -12q-76 -49 -115 -100q-59 -80 -114 -80q-35 0 -56 25q-20 20 -20 51z" />
<glyph unicode="+" horiz-adv-x="1925" d="M115 500v82h819v819h90v-819h819v-82h-819v-819h-90v819h-819z" />
<glyph unicode="," horiz-adv-x="573" d="M45 -311q45 23 84 50.5t80 65t64.5 86t23.5 99.5q0 31 -18 47q-16 14 -59.5 14t-70 32t-26.5 75q0 59 35 94t90 35q63 0 98 -53.5t35 -112.5q0 -84 -24.5 -158t-60.5 -123t-83 -90t-83 -61.5t-69 -32.5z" />
<glyph unicode="-" horiz-adv-x="757" d="M115 401q0 72 36.5 122t102.5 50h360q31 0 44.5 13.5t13.5 44.5h37q0 -72 -37 -122t-103 -50h-360q-31 0 -44 -13.5t-13 -44.5h-37z" />
<glyph unicode="." horiz-adv-x="573" d="M123 102.5q0 55.5 36 91t91 35.5t91 -35.5t36 -91t-36 -91.5t-91 -36t-91 36t-36 91.5z" />
<glyph unicode="/" d="M139 -406l611 1901h81l-610 -1901h-82z" />
<glyph unicode="0" horiz-adv-x="1187" d="M147 524q0 102 23 210t63.5 208t102 189.5t134.5 157t164 106.5t189 39q84 0 146.5 -41t99.5 -117t55.5 -175.5t18.5 -223.5q0 -102 -22.5 -210t-63.5 -208.5t-102.5 -189.5t-134 -156.5t-164 -106.5t-189.5 -39q-84 0 -146.5 41t-99.5 117t-55.5 175t-18.5 224zM311 293 q0 -260 152 -260q70 0 129 34.5t105 102.5t80 141.5t67 175.5q135 406 135 619q0 262 -152 262q-68 0 -126 -35t-105 -101.5t-82 -142t-68 -176.5q-135 -405 -135 -620z" />
<glyph unicode="1" horiz-adv-x="1187" d="M111 0l16 66h190q31 0 49.5 12t24.5 41l281 1034q-20 -14 -53 -28.5t-62 -22.5t-73 -22.5t-66 -22.5l-15 41q51 16 90 28.5t96.5 39t101.5 57t91 77t80 101.5h64l-348 -1282q-8 -29 2 -41t38 -12h201l-16 -66h-692z" />
<glyph unicode="2" horiz-adv-x="1187" d="M66 53q0 131 73.5 243t216.5 185l279 164q131 76 229.5 203t98.5 258q0 37 -6.5 71.5t-24 71.5t-43 61.5t-68.5 41t-98 16.5q-76 0 -152.5 -44t-124 -105.5t-47.5 -112.5q0 -68 35 -68q12 0 33 13q29 14 49 14q45 0 67.5 -26.5t22.5 -67.5q0 -53 -39 -92t-100 -39 q-55 0 -101.5 50t-46.5 132q0 88 38 166t98.5 131t136.5 84t149 31q193 0 305.5 -101.5t112.5 -263.5q0 -57 -18.5 -110.5t-46 -93.5t-73.5 -82t-83 -68.5t-93.5 -57t-86 -45t-80.5 -39.5l-236 -108q-98 -47 -151 -94t-53 -78q57 0 165 -47q166 -68 271 -68q80 0 145.5 36 t91.5 103l39 95h39q-10 -59 -28.5 -116.5t-49 -119t-69.5 -106.5t-95.5 -75t-121.5 -30q-43 0 -82 13.5t-70 40t-51.5 49t-46.5 57.5q-41 55 -73 81.5t-69 26.5q-43 0 -62 -18t-19 -72q0 -27 14 -37q35 -33 35 -59.5t-14.5 -44.5t-47.5 -18q-35 0 -54 19t-19 50z" />
<glyph unicode="3" horiz-adv-x="1187" d="M106 246q0 98 61.5 151.5t133.5 53.5q55 0 82 -34t27 -77q0 -45 -29 -73.5t-74 -28.5q-25 0 -41 10t-37 10q-16 0 -26 -12.5t-10 -30.5q0 -51 24.5 -88t63 -56.5t79.5 -28.5t82 -9q70 0 133.5 36.5t112.5 106.5q57 82 86 195.5t29 197.5q0 29 -1 45.5t-8.5 45t-21.5 46 t-45 31t-72 13.5q-45 0 -80 -33q-49 -45 -94 -45q-35 0 -53 14t-18 39q0 29 22.5 52.5t59.5 23.5h210q59 0 118 44t98 109q49 84 49 224q0 84 -51.5 137t-156 53t-193.5 -51t-89 -123q0 -43 23 -43q6 0 18 6q18 6 33 6q72 0 72 -78q0 -45 -29 -76.5t-86 -31.5t-92 42 t-35 103q0 94 59.5 167t147.5 109t184 36q164 0 267.5 -96.5t103.5 -243.5q0 -53 -22.5 -103.5t-57.5 -86.5t-78 -64.5t-86 -46t-84 -23.5l-2 -14q31 -12 61.5 -34t59.5 -56.5t47 -88t18 -114.5q0 -111 -55 -211t-139 -166q-70 -53 -167 -86t-202 -33q-55 0 -111.5 18.5 t-106.5 51.5t-81 88t-31 121z" />
<glyph unicode="4" horiz-adv-x="1187" d="M131 426l21 74l442 397q113 111 221.5 270.5t130.5 253.5h168q-16 -78 -81.5 -166t-194.5 -211l-600 -544h383l90 311q80 55 141 132t92 153h35l-164 -596h324l-21 -74h-321l-82 -307q-6 -29 3 -41t40 -12h190l-18 -66h-690l18 66h191q57 0 71 53l82 307h-471z" />
<glyph unicode="5" horiz-adv-x="1187" d="M127 233q0 82 47 136.5t113 54.5q57 0 90 -29.5t33 -87.5q0 -41 -29 -69.5t-76 -28.5q-2 0 -18.5 1t-27.5 0t-21 -7q-20 -14 -21 -35q0 -59 63.5 -97t161.5 -38q201 0 316 225q39 78 64.5 186.5t25.5 194.5q0 217 -207 217q-68 0 -137.5 -49t-104.5 -158 q-8 -27 -23.5 -45t-35.5 -18q-59 0 -59 49q0 51 61 117q55 59 72 112l102 334q29 94 29 150q0 25 -6 51l49 35q133 -152 252 -152q190 0 305 152l31 -31q-33 -49 -57.5 -81t-71 -75t-108.5 -65.5t-138 -22.5q-111 0 -203 88l-115 -381l9 -6q29 25 86 45.5t98 20.5 q172 0 268 -90.5t96 -253.5q0 -106 -47 -229.5t-135 -213.5q-76 -80 -182.5 -126t-220.5 -46q-147 0 -237.5 73.5t-90.5 192.5z" />
<glyph unicode="6" horiz-adv-x="1187" d="M184 434q0 147 53.5 332.5t149.5 339.5q104 168 237.5 248t258.5 80q100 0 172 -60q68 -57 67 -155q0 -84 -43 -137.5t-102 -53.5q-43 0 -70.5 23.5t-27.5 64.5q0 39 18 65.5t36.5 35t39.5 12.5q51 12 51 51q0 35 -35 61q-37 27 -110 27q-96 0 -194.5 -88t-164.5 -227 q-80 -168 -104 -342l14 -11q53 82 133 127t164 45q150 0 232.5 -95t82.5 -242q0 -104 -46 -215t-119 -193q-25 -25 -53.5 -49.5t-73.5 -51t-106.5 -43t-127.5 -16.5q-145 0 -238.5 117t-93.5 350zM365 246q0 -94 46 -153.5t121 -59.5q74 0 136.5 47t105.5 127q90 166 90 375 q0 94 -41 155.5t-123 61.5q-172 0 -284 -256q-51 -113 -51 -297z" />
<glyph unicode="7" horiz-adv-x="1187" d="M295 111q0 57 35 131.5t100.5 162t110.5 140.5t114 131l385 426l-8 8q-37 -25 -82 -25t-86 15.5t-63.5 32t-59.5 47.5q-29 25 -46 38t-44.5 24t-54.5 11q-63 0 -107.5 -47t-97.5 -151l-43 -84h-39l140 467h38q-14 -41 -7 -80t34 -39q51 47 100.5 72.5t110.5 25.5 q90 0 180 -121q39 -53 73 -80.5t75 -27.5q45 0 63.5 16.5t18.5 36.5q0 27 -25 39q-29 20 -29 53q0 31 17.5 46.5t38.5 15.5q76 0 75 -99q0 -39 -24.5 -86t-53 -81.5t-85.5 -102.5q-221 -256 -301 -362.5t-130 -225.5q-37 -90 -49 -159.5t-12 -151.5q0 -76 -36 -119t-95 -43 q-61 0 -96 37t-35 109z" />
<glyph unicode="8" horiz-adv-x="1187" d="M139 330q0 104 51.5 190t124.5 131q51 33 91 47.5t108 26.5q-55 37 -96 117t-41 176q0 162 104 282q59 68 148.5 101t169.5 33q176 0 280.5 -84t104.5 -236q0 -86 -35 -169t-98 -130q-47 -37 -112 -67.5t-112 -36.5q86 -74 127 -149t41 -169q0 -188 -135 -309 q-131 -117 -352 -117q-63 0 -127 22.5t-118 65.5t-89 115t-35 160zM229 332q0 -141 76 -220t227 -79q131 0 223.5 75.5t92.5 182.5q0 150 -78 217l-215 180q-47 -10 -74.5 -18t-67.5 -30t-73 -52q-47 -47 -79 -113.5t-32 -142.5zM520 1077q0 -61 16.5 -98t57.5 -72l186 -164 q129 18 211 115.5t82 210.5q0 143 -71.5 221t-210.5 78q-31 0 -65 -8t-71 -28.5t-66.5 -53.5t-49 -84t-19.5 -117z" />
<glyph unicode="9" horiz-adv-x="1187" d="M180 182q0 84 43 137.5t103 53.5q43 0 70.5 -23.5t27.5 -64.5q0 -39 -18.5 -65.5t-37 -35t-38.5 -12.5q-51 -12 -51 -51q0 -35 34 -62q37 -27 111 -26q96 0 194.5 88t163.5 227q80 168 105 342l-15 10q-53 -82 -133 -127t-164 -45q-150 0 -232.5 95.5t-82.5 242.5 q0 104 46 215t120 193q25 25 53.5 49.5t73.5 51t106.5 43t126.5 16.5q145 0 238.5 -117t93.5 -350q0 -147 -53 -332.5t-150 -339.5q-104 -168 -237 -248t-258 -80q-100 0 -172 60q-68 57 -68 155zM438 819q0 -94 41 -155.5t123 -61.5q172 0 285 256q51 113 51 297 q0 94 -46 153.5t-122 59.5q-74 0 -136.5 -47t-105.5 -127q-90 -166 -90 -375z" />
<glyph unicode=":" horiz-adv-x="573" d="M123 102.5q0 55.5 36 91t91 35.5t91 -35.5t36 -91t-36 -91.5t-91 -36t-91 36t-36 91.5zM311 807.5q0 55.5 36 91t91 35.5t91 -35.5t36 -91t-36 -91.5t-91 -36t-91 36t-36 91.5z" />
<glyph unicode=";" horiz-adv-x="573" d="M45 -311q45 23 84 50.5t80 65t64.5 86t23.5 99.5q0 31 -18 47q-16 14 -59.5 14t-70 32t-26.5 75q0 59 35 94t90 35q63 0 98 -53.5t35 -112.5q0 -84 -24.5 -158t-60.5 -123t-83 -90t-83 -61.5t-69 -32.5zM311 807.5q0 55.5 36 91t91 35.5t91 -35.5t36 -91t-36 -91.5 t-91 -36t-91 36t-36 91.5z" />
<glyph unicode="&#x3c;" horiz-adv-x="1925" d="M172 512v57l1548 832l41 -74l-1462 -786l1462 -787l-41 -73z" />
<glyph unicode="=" horiz-adv-x="1925" d="M115 303v82h1728v-82h-1728zM115 692v82h1728v-82h-1728z" />
<glyph unicode="&#x3e;" horiz-adv-x="1925" d="M164 -246l1462 787l-1462 786l41 74l1548 -832v-57l-1548 -831z" />
<glyph unicode="?" horiz-adv-x="892" d="M229 102.5q0 55.5 36 91t91.5 35.5t91 -35.5t35.5 -91t-35.5 -91.5t-91 -36t-91.5 36t-36 91.5zM279 496q0 74 47 139t120 110l254 152q160 86 160 217q0 109 -51 177.5t-145 68.5q-63 0 -114.5 -12.5t-81.5 -32t-50.5 -43t-28.5 -44t-8 -38.5q0 -39 27 -51 q31 -12 43 -25q20 -23 20 -59q0 -27 -21.5 -51.5t-58.5 -24.5q-47 0 -72 29q-37 37 -36 100q0 84 63.5 157.5t155.5 114.5t180 41q160 0 243 -92t83 -235q0 -90 -63.5 -171t-162.5 -128l-272 -131q-68 -37 -106.5 -84.5t-38.5 -96.5q0 -53 30.5 -79.5t75.5 -26.5 q84 0 124 47t40 113q0 37 -21 59l25 18q37 -37 37 -94q0 -86 -61.5 -145.5t-151.5 -59.5q-78 0 -131 49.5t-53 131.5z" />
<glyph unicode="@" horiz-adv-x="1679" d="M197 727q0 207 100 384t276.5 280.5t384.5 103.5q168 0 304.5 -57.5t223.5 -155.5t134 -229t47 -281q0 -63 -16.5 -131t-55.5 -134.5t-91 -119.5t-131 -86t-173 -33q-78 0 -131 42t-63 112l-11 2q-14 -23 -35.5 -45.5t-52 -49t-72.5 -44t-85 -17.5q-92 0 -161 66.5 t-69 187.5q0 129 35 256t102 207q88 104 180.5 152.5t180.5 48.5q53 0 95 -39t50 -74h11l22 88h147l-172 -635q-23 -100 -1 -154.5t63 -54.5q57 0 104 17.5t81 46.5t60.5 70t43 86t28 94t15.5 94t4 88q0 293 -171 459t-458 166q-176 0 -324.5 -98.5t-234.5 -270.5t-86 -383 q0 -309 176 -487.5t487 -178.5q180 0 361 119l33 -47q-178 -129 -414 -129q-229 0 -397 96.5t-256 268.5t-88 399zM659 457q0 -63 31 -101.5t68 -38.5q102 0 186 110t125 259l47 174q12 41 9 88t-14 90t-36.5 71t-56.5 28q-82 0 -146.5 -56.5t-126.5 -189.5 q-37 -80 -61.5 -201.5t-24.5 -232.5z" />
<glyph unicode="A" horiz-adv-x="1490" d="M-90 0l16 66h76q84 0 149.5 43t104.5 104l842 1245h49v-1304q4 -51 28.5 -69.5t69.5 -18.5h115l-17 -66h-606l17 66h127q41 0 63.5 18t22.5 76v340h-428l-140 -205q-70 -98 -69 -160q0 -69 80 -69h2h112l-16 -66h-598zM590 573h377v551z" />
<glyph unicode="B" horiz-adv-x="1413" d="M-20 0l16 66h156q53 0 69 55l330 1216q4 13 4 23q0 32 -43 33h-156l17 65h712q94 0 174 -32.5t133.5 -106.5t53.5 -174q0 -72 -31 -131.5t-78 -100.5t-109.5 -71.5t-119.5 -47t-115 -24.5l-2 -4q135 -6 231.5 -93t96.5 -222q0 -82 -35 -156t-94.5 -126t-134 -91 t-154.5 -58.5t-156 -19.5h-765zM408 121q-3 -12 -3 -21q0 -34 41 -34h334q59 0 110.5 22.5t90.5 60t65.5 86t41 101.5t14.5 104q0 137 -61.5 219t-182.5 82h-283zM594 807h274q86 0 156 22.5t111 58.5t67.5 84t36.5 91t10 86q0 244 -227 244h-215q-55 0 -70 -56z" />
<glyph unicode="C" horiz-adv-x="1372" d="M188 516q0 139 43 284.5t121 268.5t175.5 219t213 151.5t230.5 55.5q133 0 227 -94l37 -37q20 -20 31.5 -27.5t27.5 -7.5q27 0 48.5 31t30.5 60.5t13 58.5h48l-131 -627h-48q2 41 2 129q0 72 -19 174t-69 170q-78 104 -206 105q-123 0 -221.5 -75t-196.5 -257 q-68 -127 -114 -314.5t-46 -382.5q0 -98 17.5 -168.5t43 -108.5t64.5 -60.5t71.5 -28.5t75.5 -6q115 0 224.5 67.5t187.5 172t121 227.5l63 -23q-27 -80 -64.5 -151.5t-95 -138t-125 -115t-156.5 -77t-189 -28.5q-61 0 -121 19.5t-117 62.5t-100 105.5t-70 156.5t-27 209z " />
<glyph unicode="D" horiz-adv-x="1536" d="M-20 0l16 66h156q53 0 69 55l330 1216q4 13 4 23q0 32 -43 33h-156l19 65h657q213 0 334 -147.5t121 -382.5q0 -162 -59.5 -328t-165.5 -297q-244 -303 -578 -303h-704zM408 121q-3 -12 -3 -21q0 -34 41 -34h259q266 0 436 303q68 119 108.5 293t40.5 362q0 78 -14 140.5 t-49 115.5t-95.5 83t-144.5 30h-180q-55 0 -70 -56z" />
<glyph unicode="E" horiz-adv-x="1433" d="M-20 0l16 66h156q53 0 69 55l330 1216q4 13 4 23q0 32 -43 33h-156l17 65h1130l-94 -467h-51q6 43 6 99q0 88 -14.5 148t-45 93t-69.5 47.5t-92 14.5h-336q-55 0 -70 -56l-147 -546h221q37 0 67.5 10t51 25.5t41 42t32 48t23.5 56.5t17.5 54.5t15.5 53.5h51l-180 -671 h-51q20 90 20 153q0 72 -27.5 113t-95.5 41h-207l-161 -596q-3 -12 -3 -21q0 -34 41 -34h381q53 0 125 26.5t129 79.5q57 57 111.5 151.5t81.5 159.5l24 66h50l-172 -549h-1196z" />
<glyph unicode="F" horiz-adv-x="1392" d="M-20 0l16 66h156q53 0 69 55l330 1216q4 13 4 23q0 32 -43 33h-156l17 65h1130l-94 -467h-51q6 43 6 99q0 88 -14.5 148t-45 93t-69.5 47.5t-92 14.5h-336q-55 0 -70 -56l-147 -546h219q35 0 65.5 10t53 25.5t42 42t31 48t23.5 56.5t18.5 54.5t14.5 53.5h51l-180 -671 h-51q20 90 20 153q0 72 -27.5 113t-95.5 41h-205l-161 -596q-3 -12 -3 -21q0 -34 41 -34h230l-17 -66h-679z" />
<glyph unicode="G" horiz-adv-x="1515" d="M188 516q0 119 31 240t84 227.5t129 201.5t161 163.5t183 107.5t195 39q162 0 286 -111q37 -33 53.5 -44t35.5 -11q63 0 90 150h47l-131 -627h-47q2 39 2 129q0 242 -88 344q-47 55 -117 80t-139 25q-123 0 -221.5 -74t-196.5 -258q-68 -127 -114 -314.5t-46 -382.5 q0 -98 18.5 -171.5t43 -110.5t62.5 -58.5t67.5 -26.5t66.5 -5q78 0 151.5 41t128 104.5t92.5 138t52 146.5l23 108q2 8 2 23q0 33 -43 33h-205l16 65h635l-16 -65h-131q-57 0 -72 -56l-125 -596h-51v144q0 84 -31 84q-29 0 -76 -56q-170 -180 -370 -180q-184 0 -309.5 151.5 t-125.5 401.5z" />
<glyph unicode="H" horiz-adv-x="1638" d="M-20 0l16 66h156q53 0 69 55l330 1216q3 11 3 21q0 35 -42 35h-156l17 65h606l-16 -65h-156q-53 0 -70 -56l-149 -546h633l149 546q3 11 3 21q0 35 -42 35h-155l16 65h606l-16 -65h-156q-53 0 -70 -56l-329 -1216q-3 -11 -3 -21q0 -34 42 -34h155l-16 -66h-606l16 66h156 q53 0 69 55l162 596h-633l-161 -596q-3 -12 -3 -21q0 -34 41 -34h156l-16 -66h-606z" />
<glyph unicode="I" horiz-adv-x="819" d="M-20 0l16 66h156q53 0 69 55l330 1216q4 13 4 23q0 32 -43 33h-156l17 65h606l-16 -65h-156q-55 0 -70 -56l-329 -1216q-3 -12 -3 -21q0 -34 41 -34h156l-16 -66h-606z" />
<glyph unicode="J" horiz-adv-x="1105" d="M29 225q0 98 53 157.5t131 59.5q53 0 90 -32.5t37 -83.5q0 -61 -35 -100.5t-100 -39.5q-20 0 -30.5 -13t-10.5 -34q0 -53 39 -81.5t116 -28.5q100 0 175 74.5t104 181.5l285 1052q4 16 4 25q0 31 -43 31h-230l17 65h680l-17 -65h-155q-55 0 -70 -56l-260 -958 q-51 -190 -194.5 -303t-311.5 -113q-127 0 -200.5 73.5t-73.5 188.5z" />
<glyph unicode="K" horiz-adv-x="1548" d="M-20 0l16 66h156q53 0 69 55l330 1216q4 13 4 23q0 32 -43 33h-156l17 65h606l-16 -65h-156q-55 0 -70 -56l-164 -608l611 459q68 51 97.5 83t29.5 68q0 53 -111 54h-49l16 65h562l-17 -65q-66 0 -133.5 -25t-163.5 -94l-497 -369l249 -749q20 -51 49 -70.5t95 -19.5h86 l-17 -66h-598l17 66h106q37 0 59 22q13 13 14 36q0 16 -7 36l-203 633l-221 -164l-139 -508q-3 -12 -3 -21q0 -34 41 -34h156l-16 -66h-606z" />
<glyph unicode="L" horiz-adv-x="1392" d="M-20 0l16 66h156q53 0 69 55l330 1216q4 13 4 23q0 32 -43 33h-156l19 65h604l-16 -65h-156q-55 0 -70 -56l-329 -1216q-3 -12 -3 -21q0 -34 41 -34h381q53 0 125 26.5t129 79.5q57 57 111.5 151.5t81.5 159.5l24 66h50l-172 -549h-1196z" />
<glyph unicode="M" horiz-adv-x="1830" d="M-20 0l16 66h98q66 0 115 54t72 138l292 1079q4 13 4 22q0 33 -42 34h-179l17 65h520v-1136l623 1136h475l-17 -65h-155q-55 0 -70 -56l-330 -1216q-3 -11 -3 -20q0 -35 46 -35h156l-16 -66h-611l17 66h155q53 0 70 55l344 1272h-31l-782 -1418h-51v1418h-41l-312 -1135 q-12 -45 -12 -86q0 -106 103 -106h98l-17 -66h-552z" />
<glyph unicode="N" horiz-adv-x="1617" d="M-20 0l16 66h98q66 0 115 55t72 137l292 1079q8 29 -2 42.5t-36 13.5h-179l17 65h372l429 -1194l256 936q14 49 14 88q0 104 -105 105h-98l16 65h553l-16 -65h-98q-57 0 -110.5 -51.5t-76.5 -141.5l-335 -1237h-82l-453 1272h-10l-269 -977q-12 -45 -12 -88 q0 -104 103 -104h98l-17 -66h-552z" />
<glyph unicode="O" horiz-adv-x="1454" d="M188 508q0 160 45.5 313.5t123 273t176 211t213 140.5t225.5 49q131 0 231.5 -76t151.5 -200.5t51 -272.5q0 -160 -45 -313.5t-123 -272t-176 -209t-213 -139.5t-225 -49q-131 0 -231.5 76t-152 199t-51.5 270zM385 393q0 -180 65.5 -272t188.5 -92q74 0 143.5 31.5 t118.5 79.5t94 116t72 127t51 125q90 254 90 557q0 180 -65.5 272.5t-188.5 92.5q-74 0 -143.5 -32t-118.5 -80t-94 -115.5t-71.5 -127t-51.5 -125.5q-90 -254 -90 -557z" />
<glyph unicode="P" horiz-adv-x="1339" d="M-20 0l16 66h156q53 0 69 55l330 1216q10 27 1 41.5t-40 14.5h-156l19 65h698q152 0 246 -85t94 -238q0 -90 -43 -174t-119.5 -147.5t-192.5 -102.5t-251 -39h-250l-149 -551q-6 -33 2 -44t36 -11h230l-17 -66h-679zM575 737h275q80 0 155.5 39t124.5 109q41 57 64 133 t23 153q0 111 -54.5 166.5t-134.5 55.5h-221q-55 0 -70 -56z" />
<glyph unicode="Q" horiz-adv-x="1454" d="M188 508q0 160 45.5 313.5t123 273t176 211t213 140.5t225.5 49q131 0 231.5 -76t151.5 -200.5t51 -276.5q0 -143 -37 -280.5t-95.5 -242t-133 -190.5t-150.5 -139t-145 -80v-90v-47t6 -47t14 -49.5t26.5 -32.5t45.5 -14q117 0 186 250l49 -15q-20 -84 -48.5 -146.5 t-58.5 -98t-65.5 -58t-66.5 -31t-64 -8.5q-90 0 -147 48t-57 143q0 37 14 104l12 51q-31 -6 -67 -6q-131 0 -231.5 76t-152 199t-51.5 270zM385 393q0 -229 107 -315h8q-27 37 -27 90q0 109 54.5 158t132 49t124.5 -76t58 -207q174 125 270 390.5t96 582.5 q0 180 -65.5 272.5t-188.5 92.5t-231.5 -87.5t-181 -231.5t-114.5 -331.5t-42 -386.5zM530 168q0 -70 30 -104.5t77 -34.5q27 0 68 8l16 76q6 25 6 53.5t-3 50t-11 47t-28.5 39.5t-53.5 14q-47 0 -74 -37.5t-27 -111.5z" />
<glyph unicode="R" horiz-adv-x="1474" d="M-20 0l16 66h156q53 0 69 55l330 1216q6 31 -2 43.5t-37 12.5h-156l17 65h637q174 0 270 -84t96 -248q0 -131 -118.5 -236.5t-274.5 -133.5l-2 -8q186 -90 186 -297q0 -49 -22.5 -158t-22.5 -146q0 -29 14.5 -47t43.5 -18q41 0 73.5 24.5t56 69.5t36 78t24.5 78l51 -15 q-37 -125 -67 -182q-84 -160 -236 -160q-82 0 -135 43t-53 148q0 76 37 217t37 184q0 80 -43 121t-113 41h-277l-163 -608q-6 -31 2 -43t36 -12h205l-16 -66h-655zM590 795h250q156 0 248 100t92 281q0 109 -53.5 163t-155.5 54h-164q-55 0 -70 -56z" />
<glyph unicode="S" horiz-adv-x="1269" d="M70 -20l163 647h48q-10 -56 -10 -111q0 -91 28 -179q45 -140 141.5 -224t212.5 -84q174 0 263.5 71.5t89.5 210.5q0 82 -42 134.5t-124 103.5l-238 145q-127 76 -183.5 156t-56.5 215q0 111 34 193.5t95.5 134t142.5 77t177 25.5q74 0 146.5 -39t117.5 -80q35 -33 60 -33 q33 0 61.5 45.5t42.5 90.5h47l-119 -533h-47q1 13 1 26q-1 87 -35 183q-40 111 -118.5 193t-174.5 82q-80 0 -143.5 -25t-100.5 -63.5t-56.5 -86t-19.5 -98.5q0 -43 14.5 -80t32 -61.5t50 -51t55 -40t57.5 -33.5l192 -113q55 -33 90 -57.5t72 -59t56.5 -69.5t32 -82 t12.5 -104q0 -205 -132.5 -324t-367.5 -119q-68 0 -133.5 18.5t-112.5 48t-69.5 47t-36.5 32.5q-41 41 -62 41q-23 0 -47 -37t-36.5 -69t-22.5 -64h-47z" />
<glyph unicode="T" horiz-adv-x="1413" d="M217 0l16 66h205q53 0 68 55l330 1216q4 13 4 23q0 33 -41 33h-68q-70 0 -132 -35t-103 -74q-59 -57 -111.5 -152.5t-74 -154.5t-21.5 -68h-51l163 549h1123l-129 -549h-52q25 102 25 213q0 66 -14.5 115t-35 77.5t-49 47t-54 25t-52.5 6.5h-67q-63 0 -74 -56l-330 -1216 q-6 -29 2 -42t35 -13h205l-16 -66h-701z" />
<glyph unicode="U" horiz-adv-x="1605" d="M266 360q0 49 19 127l229 850q6 29 -2 42.5t-37 13.5h-156l17 65h606l-16 -65h-156q-55 0 -70 -56l-243 -905q-18 -78 -19 -117q0 -135 88 -210.5t230 -75.5q96 0 176 32.5t132 88t86 119t54 137.5l219 798q12 49 13 86q0 43 -23.5 73t-81.5 30h-98l16 65h553l-16 -65 h-98q-61 0 -112.5 -54.5t-74.5 -138.5l-213 -774q-27 -102 -67.5 -181t-104 -145.5t-159 -101.5t-218.5 -35q-119 0 -211 32t-148 86t-85 125.5t-29 153.5z" />
<glyph unicode="V" horiz-adv-x="1540" d="M287 1393l16 65h623l-17 -65h-143q-47 0 -62.5 -25t-15.5 -72v-1011l533 813q86 131 86 209q0 37 -23.5 61.5t-66.5 24.5h-91l17 65h606l-16 -65h-80q-76 0 -143.5 -45t-102.5 -105l-848 -1280h-51v1340q-6 53 -29.5 71.5t-68.5 18.5h-123z" />
<glyph unicode="W" horiz-adv-x="2207" d="M287 1393l16 65h606l-16 -65h-139q-45 0 -59.5 -23.5t-14.5 -73.5v-999l500 801q63 96 63 205q0 51 -25.5 70.5t-70.5 19.5h-107l17 65h606l-16 -65h-117q-51 0 -79 -35t-28 -94v-945l488 768q78 121 78 216q0 31 -25 60.5t-57 29.5h-113l16 65h607l-17 -65h-90 q-119 0 -211 -154l-805 -1276h-51v1096l-692 -1096h-51v1340q-6 53 -28.5 71.5t-68.5 18.5h-116z" />
<glyph unicode="X" horiz-adv-x="1720" d="M20 0l19 66h88q86 0 151.5 40.5t133.5 114.5l444 486l-264 583q-14 33 -22.5 46.5t-25 28.5t-38 21.5t-55.5 6.5h-140l17 65h639l-17 -65h-92q-34 0 -60 -31q-15 -18 -15 -40q0 -15 8 -32l198 -436l309 338q41 45 41 115q0 86 -104 86h-76l17 65h639l-17 -65h-74 q-147 0 -245 -107l-457 -506l293 -641q20 -45 45.5 -59t71.5 -14h124l-16 -66h-655l16 66h131q46 0 68 26q12 14 11 34q0 17 -9 38l-213 469l-314 -346q-33 -37 -45 -65.5t-12 -69.5q0 -86 107 -86h69l-18 -66h-656z" />
<glyph unicode="Y" horiz-adv-x="1474" d="M217 0l16 66h205q53 0 68 53l143 532l-162 652q-16 51 -38.5 70.5t-63.5 19.5h-152l17 65h647l-16 -65h-121q-51 0 -76 -31q-16 -19 -16 -40q0 -13 6 -26l135 -569l352 406q31 37 46.5 54t36 56t20.5 70q0 80 -99 80h-88l17 65h606l-17 -65h-96q-117 0 -244 -150 l-501 -569l-150 -555q-4 -12 -4 -22q0 -31 41 -31h205l-16 -66h-701z" />
<glyph unicode="Z" horiz-adv-x="1392" d="M74 0l16 63l1040 1330h-368q-90 0 -164 -37t-156 -123q-53 -53 -91 -116.5t-50 -96.5t-12 -37h-51l172 475h966l-16 -65l-1036 -1327h454q147 0 258 96q63 55 122 151.5t87 165.5l27 70h51l-176 -549h-1073z" />
<glyph unicode="[" horiz-adv-x="778" d="M49 -406l508 1864h430l-16 -61h-246q-25 -4 -35 -10.5t-18 -30.5l-445 -1635q-6 -25 1.5 -43t27.5 -22h240l-17 -62h-430z" />
<glyph unicode="\" d="M147 1495h82l611 -1901h-82z" />
<glyph unicode="]" horiz-adv-x="778" d="M-184 -406l16 62h246q25 4 35 10t18 31l444 1634q6 25 -1 43.5t-27 22.5h-240l17 61h430l-508 -1864h-430z" />
<glyph unicode="^" horiz-adv-x="1187" d="M180 688l467 746l467 -746h-98l-369 586l-368 -586h-99z" />
<glyph unicode="_" horiz-adv-x="1064" d="M-84 -324l21 82h1064l-20 -82h-1065z" />
<glyph unicode="`" d="M438 1311q0 25 16.5 49t57.5 24q33 0 50.5 -18t31.5 -61l82 -244l-35 -21l-174 199q-29 31 -29 72z" />
<glyph unicode="a" horiz-adv-x="1097" d="M86 256q0 125 37 241.5t84 188.5q72 113 167 180.5t193 67.5q63 0 114.5 -44t74.5 -136l8 -4l45 159h135l-174 -645q-29 -115 -29 -164q0 -55 37 -55q57 0 116.5 91t106.5 237l41 -13q-23 -70 -51 -132t-67 -122.5t-86 -95.5t-97 -35q-119 0 -118 209l2 56l-7 4 q-16 -39 -44.5 -80t-67.5 -86t-90 -74t-101 -29q-109 0 -169 77t-60 204zM233 174q0 -59 23 -104t72 -45q74 0 145.5 75.5t128.5 206.5q41 94 72 206t31 183q0 90 -37 139.5t-101 49.5q-35 0 -67.5 -22.5t-61 -58.5t-50 -72t-40.5 -77q-53 -115 -84 -243.5t-31 -237.5z" />
<glyph unicode="b" horiz-adv-x="983" d="M139 279q0 57 13 100l270 985q8 25 0 35t-31 10h-182l14 49h363l-201 -735l10 -8q55 96 133 157.5t164 61.5q55 0 99.5 -26.5t70 -69.5t38.5 -95.5t13 -107.5q0 -127 -70.5 -282.5t-156.5 -246.5q-63 -66 -135 -98.5t-166 -32.5q-100 0 -173 82.5t-73 221.5zM283 217 q0 -25 1 -43t8 -49t19.5 -50.5t39 -34.5t63.5 -15t71.5 20.5t64.5 57t49 67.5t42 76q125 236 125 469q0 59 -23.5 114.5t-66.5 55.5q-70 0 -143.5 -68.5t-135.5 -189.5q-114 -234 -114 -410z" />
<glyph unicode="c" horiz-adv-x="868" d="M106 324q0 123 45.5 243.5t135.5 212.5q72 76 144.5 115t162.5 39q37 0 69.5 -10.5t61.5 -33t47.5 -64.5t18.5 -97q0 -61 -35 -102t-82 -41q-39 0 -59.5 24.5t-20.5 53.5q0 57 65 106q23 18 23 53q0 20 -22.5 41t-73.5 21q-160 0 -279 -357q-23 -66 -38 -168t-15 -159 q0 -90 41 -133t96 -43t108.5 26.5t86 62.5t62.5 82t42 72.5t21 48.5l43 -14q-49 -139 -149.5 -233.5t-223.5 -94.5t-199 102t-76 247z" />
<glyph unicode="d" horiz-adv-x="1085" d="M86 256q0 123 46 242.5t99 203.5q68 109 162 170.5t187 61.5q61 0 110 -47t66 -133l8 -4l166 614q1 7 1 13q0 32 -34 32h-180l14 49h363l-324 -1194q-29 -115 -29 -164q0 -55 37 -55q57 0 116.5 92t106.5 236l41 -13q-137 -385 -301 -385q-119 0 -118 209l2 56l-7 4 q-16 -39 -44.5 -80t-67.5 -86t-90 -74t-101 -29q-109 0 -169 77t-60 204zM233 174q0 -59 23 -104t72 -45q74 0 145.5 75.5t128.5 206.5q41 94 72 206t31 183q0 90 -37 139.5t-101 49.5q-35 0 -67.5 -22.5t-61 -58.5t-50 -72t-40.5 -77q-53 -115 -84 -243.5t-31 -237.5z" />
<glyph unicode="e" horiz-adv-x="839" d="M106 324q0 123 45.5 243.5t135.5 212.5q147 154 307 154q82 0 134 -41t52 -131q0 -160 -207 -256q-106 -51 -290 -66q-29 -115 -29 -239q0 -90 41 -133t96 -43t108.5 26.5t86 62.5t62.5 82t42 72.5t21 48.5l43 -14q-49 -139 -149.5 -233.5t-223.5 -94.5t-199 102t-76 247 zM295 492q150 10 240 51q63 29 105 90t42 141q0 57 -23.5 84t-62.5 27q-84 0 -155.5 -76t-104.5 -168q-25 -69 -41 -149z" />
<glyph unicode="f" horiz-adv-x="655" d="M-86 -487l369 1339h-211l12 57h213l25 80q14 47 44.5 119t55.5 113q152 254 362 254q72 0 119 -43t47 -105q0 -55 -30.5 -91t-73.5 -36q-31 0 -49.5 18.5t-18.5 49.5q0 41 33 65q33 16 33 45q0 23 -15.5 35t-42.5 12q-37 0 -67.5 -8t-65.5 -32.5t-63.5 -65.5t-59 -112.5 t-57.5 -170.5l-37 -127h230l-13 -57h-231l-369 -1339h-139z" />
<glyph unicode="g" horiz-adv-x="983" d="M-35 -307q0 57 34 90t77 33q39 0 60.5 -24.5t21.5 -57.5q0 -51 -39 -82q-18 -16 -19 -45q0 -66 88 -66q70 0 121 24.5t103 92.5q84 113 137 309q72 250 76 273l-7 4q-16 -39 -44.5 -80t-67.5 -86t-90 -74t-101 -29q-109 0 -169 77t-60 204q0 123 46 242.5t99 203.5 q68 109 162 170.5t187 61.5q61 0 110 -47t66 -133l8 -4l45 159h135l-252 -923q-27 -96 -84 -204t-131 -175q-63 -59 -135 -87t-137 -28q-109 0 -174.5 53.5t-65.5 147.5zM233 174q0 -59 23 -104t72 -45q74 0 145.5 75.5t128.5 206.5q41 94 72 206t31 183q0 90 -37 139.5 t-101 49.5q-35 0 -67.5 -22.5t-61 -58.5t-50 -72t-40.5 -77q-53 -115 -84 -243.5t-31 -237.5z" />
<glyph unicode="h" horiz-adv-x="1048" d="M49 0l373 1364q8 25 0 35t-33 10h-180l14 49h363l-271 -981l9 -6q8 12 34.5 64.5t45 85t51 85t63.5 87t68 70.5t75.5 53.5t79.5 17.5q61 0 97 -50t36 -147q0 -45 -13 -108.5t-27 -100.5l-132 -305q-32 -70 -32 -118q0 -32 11 -50t36 -18q37 0 75.5 36t71.5 94t54.5 106.5 t39.5 99.5l41 -13q-37 -104 -78.5 -186t-102 -140.5t-124.5 -58.5q-55 0 -93 49.5t-38 147.5q0 45 12.5 106.5t28.5 102.5l131 305q33 72 33 121q0 65 -44 65h-1q-125 0 -260 -231q-82 -137 -145.5 -275.5t-92.5 -230.5l-41 -135h-135z" />
<glyph unicode="i" horiz-adv-x="684" d="M74 549q57 164 136 274.5t171 110.5q53 0 91 -51.5t38 -145.5q0 -45 -13.5 -108.5t-27.5 -100.5l-131 -305q-33 -72 -33 -121q0 -29 11.5 -47t35.5 -18q37 0 76 36t71.5 94t54 106.5t40.5 99.5l41 -13q-37 -104 -79 -186t-102.5 -140.5t-123.5 -58.5q-55 0 -93 49.5 t-38 147.5q0 45 12 106.5t29 102.5l131 305q33 72 32 121q0 65 -44 65h-1q-39 0 -77.5 -35.5t-71.5 -94t-54.5 -107.5t-39.5 -98zM442 1307q0 45 31 75.5t76 30.5t75.5 -30.5t30.5 -75.5t-30.5 -76t-75.5 -31t-76 31t-31 76z" />
<glyph unicode="j" horiz-adv-x="667" d="M-199 -334q0 57 38 98t85 41q37 0 57.5 -21.5t20.5 -55.5q0 -53 -47 -82q-33 -20 -33 -47q0 -57 64 -58q59 0 110 45t82 154q6 25 24.5 105.5t26.5 111.5l189 694l10 37t14 63.5t4 51t-11 43t-34 18.5q-45 0 -94 -57t-86 -131t-65 -156l-41 12q16 53 38.5 102.5t53.5 107 t65.5 98.5t79.5 67.5t90 26.5q39 0 67 -16.5t41 -41t18 -48t5 -46.5q0 -59 -22 -155l-197 -721q-23 -78 -59.5 -150.5t-85.5 -132t-110.5 -95.5t-125.5 -36q-61 0 -116.5 45t-55.5 129zM491 1307q0 45 31 75.5t76 30.5t75.5 -30.5t30.5 -75.5t-30.5 -76t-75.5 -31t-76 31 t-31 76z" />
<glyph unicode="k" horiz-adv-x="1003" d="M49 0l373 1364q8 25 0 35t-33 10h-180l14 49h363l-258 -946h129q94 0 176 264q27 88 74 123t100 35q29 0 55.5 -14.5t38.5 -30.5q33 -45 33 -102.5t-28.5 -92.5t-74.5 -35q-29 0 -51 18.5t-22 51.5q0 29 18 55q14 23 15 35q0 33 -39 33q-29 0 -45.5 -20.5t-28.5 -59.5 q-27 -88 -68 -174t-80 -100l-2 -11q53 -4 94.5 -46t41.5 -109q0 -49 -20.5 -124t-20.5 -99q0 -23 10 -42.5t32.5 -19.5t51.5 23q12 10 25.5 23t24.5 30.5t21.5 33t21.5 38t18.5 37t17.5 39t14 34.5t13.5 37t11.5 31l41 -13q-133 -385 -295 -385q-61 0 -104.5 39t-43.5 125 q0 53 24.5 127t24.5 105q0 47 -18 69.5t-76 22.5h-123l-131 -463h-135z" />
<glyph unicode="l" horiz-adv-x="593" d="M111 184q0 41 20 123l291 1057q8 25 0 35t-33 10h-180l14 49h359l-320 -1175q-33 -131 -33 -183q0 -55 39 -55t82 51t77 121t62 156l41 -13q-18 -53 -34.5 -92t-47 -98t-60.5 -98t-72 -68t-87 -29q-118 0 -118 209z" />
<glyph unicode="m" horiz-adv-x="1650" d="M74 549q135 385 299 385q121 0 121 -211q0 -35 -18.5 -121t-37.5 -125l8 -6q8 12 28 51t33 63.5t36.5 65.5t43 70t44 63.5t47 59t46.5 47t47.5 33t45.5 10.5q158 0 158 -195q0 -74 -55 -262l6 -6q8 12 34.5 64.5t45 85t51.5 85t63.5 87t67.5 70.5t76 53.5t79 17.5 q61 0 97.5 -50t36.5 -147q0 -45 -13.5 -108.5t-27.5 -100.5l-131 -305q-33 -72 -33 -121q0 -29 11 -47t36 -18q37 0 76 36t71.5 94t54 106.5t40.5 99.5l41 -13q-37 -104 -79 -186t-102.5 -140.5t-124.5 -58.5q-55 0 -93 49.5t-38 147.5q0 45 12.5 106.5t28.5 102.5l131 305 q33 72 33 121q0 65 -44 65h-1q-125 0 -260 -231q-82 -137 -145.5 -275.5t-92.5 -230.5l-41 -135h-135l170 633q2 8 9.5 32.5t12.5 42t9 42t4 43.5q0 79 -63 79h-2q-53 0 -151.5 -147t-178.5 -317t-113 -273l-41 -135h-135l172 633q31 123 31 174q0 57 -39 57 q-102 0 -221 -327z" />
<glyph unicode="n" horiz-adv-x="1171" d="M74 549q135 385 301 385q119 0 119 -209q0 -41 -19.5 -126t-34.5 -122l6 -6q8 12 35 64.5t45.5 85t51 85t63.5 87t67.5 70.5t75.5 53.5t80 17.5q61 0 97 -50t36 -147q0 -45 -13 -108.5t-28 -100.5l-131 -305q-32 -70 -32 -118q0 -32 11 -50t36 -18q37 0 75.5 36t71.5 94 t54.5 106.5t39.5 99.5l41 -13q-37 -104 -79 -186t-102 -140.5t-124 -58.5q-55 0 -93 49.5t-38 147.5q0 45 12.5 106.5t28.5 102.5l131 305q33 72 33 121q0 65 -44 65h-1q-125 0 -260 -231q-82 -137 -145.5 -275.5t-92.5 -230.5l-41 -135h-135l172 635q31 123 31 174 q0 55 -39 55q-41 0 -84 -51t-76 -120.5t-61 -155.5z" />
<glyph unicode="o" horiz-adv-x="946" d="M106 336q0 106 41 214.5t106.5 192.5t159 137.5t189.5 53.5q49 0 97.5 -22.5t87 -65.5t62 -113.5t23.5 -159.5q0 -106 -39.5 -214.5t-105 -192.5t-158 -137.5t-188.5 -53.5q-109 0 -192 94.5t-83 266.5zM254 213q0 -84 35 -136t100 -52q45 0 82 20.5t66.5 59t49 74.5 t42.5 87q43 98 69.5 216t26.5 214q0 84 -33 136.5t-98 52.5q-45 0 -83 -20.5t-67.5 -58.5t-50 -76t-43.5 -87q-43 -98 -69.5 -216t-26.5 -214z" />
<glyph unicode="p" horiz-adv-x="1105" d="M-156 -487l17 57h151q25 0 37 10t19 35l280 1042q25 98 25 152q0 31 -9.5 43t-31.5 12q-37 0 -81 -53t-78 -124t-60 -150l-41 12q135 385 303 385q35 0 58.5 -18.5t35.5 -49t17.5 -61.5t5.5 -66l-3 -69l7 -4q16 39 44.5 79.5t67.5 86t90.5 74t100.5 28.5q109 0 169 -77 t60 -204q0 -125 -37 -241.5t-84 -188.5q-72 -113 -167 -180.5t-193 -67.5q-63 0 -114.5 44t-74.5 137l-8 4l-143 -545q-6 -25 0 -35t31 -10h249l-16 -57h-627zM410 213q0 -90 36.5 -139t100.5 -49q35 0 67.5 22.5t61.5 58t50.5 71.5t39.5 77q53 115 84 244t31 237 q0 59 -22.5 104.5t-72.5 45.5q-74 0 -145.5 -76t-128.5 -207q-41 -94 -71.5 -205.5t-30.5 -183.5z" />
<glyph unicode="q" horiz-adv-x="983" d="M86 256q0 123 46 242.5t99 203.5q68 109 162 170.5t187 61.5q63 0 114 -52.5t70 -166.5h10l135 194h37l-352 -1294q-6 -25 2 -35t33 -10h151l-16 -57h-629l17 57h247q25 0 37.5 10t18.5 35q166 602 170 625l-7 4q-20 -47 -48.5 -90t-67.5 -85t-87 -68t-100 -26 q-109 0 -169 77t-60 204zM233 174q0 -59 23 -104t72 -45q74 0 145.5 75.5t128.5 206.5q41 94 72 206t31 183q0 90 -37 139.5t-101 49.5q-35 0 -67.5 -22.5t-61 -58.5t-50 -72t-40.5 -77q-53 -115 -84 -243.5t-31 -237.5z" />
<glyph unicode="r" horiz-adv-x="880" d="M74 549q135 385 301 385q119 0 119 -209q0 -57 -19 -119l14 -4q31 66 58.5 115t65.5 103t80 84t83 30q68 0 102.5 -41t34.5 -100q0 -53 -34.5 -95.5t-92.5 -42.5q-35 0 -57 25t-22 61.5t24 65.5q20 20 21 31q0 6 -1 11t-7.5 9t-18.5 4q-47 0 -127 -139t-146.5 -304 t-105.5 -292l-39 -127h-135l172 635q31 123 31 174q0 55 -39 55q-57 0 -116.5 -97t-104.5 -230z" />
<glyph unicode="s" horiz-adv-x="860" d="M49 217q0 49 28.5 92t84.5 43q31 0 53.5 -21.5t22.5 -58.5q0 -51 -43 -65q-27 -6 -40.5 -21.5t-13.5 -48.5q0 -31 21.5 -55.5t56.5 -35.5t67.5 -16t63.5 -5q109 0 166 49t57 123q0 90 -65 137l-170 129q-96 61 -96 186q0 68 28.5 123t73.5 90t100.5 53.5t112.5 18.5 q61 0 114.5 -24.5t82 -62.5t45 -76t16.5 -66q0 -47 -26.5 -82t-79.5 -35q-33 0 -57.5 21.5t-24.5 54.5q0 41 26 61q8 8 29 20q25 14 25 33q0 47 -52.5 77t-109.5 30q-82 0 -143.5 -47t-61.5 -131q0 -35 8 -57.5t18.5 -33t32.5 -24.5l191 -143q29 -23 47 -41.5t34.5 -53.5 t16.5 -75q0 -55 -23.5 -108.5t-66.5 -97.5t-111.5 -71t-148.5 -27q-137 0 -213 73t-76 169z" />
<glyph unicode="t" horiz-adv-x="655" d="M106 147q0 78 23 168l147 537h-141l15 57h143l133 492h135l-133 -492h231l-14 -57h-233l-170 -631q-16 -53 -17 -115q0 -20 14.5 -39.5t45.5 -19.5q27 0 53 16q47 33 80 112t67 198l41 -13q-14 -61 -30.5 -111t-39 -103.5t-50 -89.5t-65.5 -58.5t-83 -22.5q-68 0 -110 46 t-42 126z" />
<glyph unicode="u" horiz-adv-x="1171" d="M74 549q37 104 79 186t102 140.5t124 58.5q55 0 93 -49t38 -148q0 -45 -12.5 -106.5t-28.5 -102.5l-131 -305q-33 -72 -33 -121q0 -65 44 -65h1q125 0 260 231q82 137 145.5 275.5t92.5 230.5l41 135h135l-172 -635q-31 -123 -31 -174q0 -55 39 -55q41 0 84 51t76 121 t61 156l41 -13q-135 -385 -301 -385q-119 0 -119 209q0 41 19.5 126t34.5 122l-6 6q-8 -12 -35 -64t-45.5 -85t-51 -85t-63.5 -87t-67.5 -71t-75.5 -53.5t-80 -17.5q-61 0 -97 50.5t-36 146.5q0 45 13 108.5t28 100.5l131 305q32 70 32 118q0 32 -11 50t-36 18 q-37 0 -75.5 -35.5t-71.5 -94t-54.5 -106.5t-39.5 -99z" />
<glyph unicode="v" horiz-adv-x="966" d="M74 549q37 104 79 186t102 140.5t124 58.5q55 0 93 -49t38 -148q0 -45 -12.5 -106.5t-28.5 -102.5l-131 -305q-33 -72 -33 -121q0 -41 19.5 -59t64.5 -18q78 0 152.5 45t129 116.5t97.5 153.5t63.5 160t20.5 135q0 41 -16.5 56.5t-44.5 21.5q-41 8 -76 38.5t-35 79.5 q0 47 27.5 75t72.5 28q51 0 86 -37t47.5 -86t12.5 -106q0 -37 -10.5 -92.5t-32 -125t-52 -140.5t-77.5 -137.5t-102.5 -118.5t-130.5 -84t-156 -32q-66 0 -116 52.5t-50 144.5q0 45 13 108.5t28 100.5l131 305q32 70 32 118q0 32 -11 50t-36 18q-37 0 -75.5 -35.5t-71.5 -94 t-54.5 -106.5t-39.5 -99z" />
<glyph unicode="w" horiz-adv-x="1466" d="M74 549q37 104 79 186t102 140.5t124 58.5q55 0 93 -49t38 -148q0 -45 -12.5 -106.5t-28.5 -102.5l-131 -305q-33 -72 -33 -121q0 -77 70 -77h2q57 0 126.5 64.5t131 161.5t112 207.5t76.5 205.5l66 245h135l-186 -688q-16 -61 -17 -127q0 -29 17.5 -49t50.5 -20 q78 0 152.5 45t129 116.5t97.5 153.5t63.5 160t20.5 135q0 41 -16.5 56.5t-45.5 21.5q-41 8 -75.5 38.5t-34.5 79.5q0 47 27.5 75t72.5 28q51 0 86 -37t47 -86t12 -106q0 -37 -10 -92.5t-31.5 -125t-52.5 -140.5t-78 -137.5t-102 -118.5t-130 -84t-157 -32q-72 0 -117 43 t-45 142q0 70 19 137l-12 4q-66 -133 -164.5 -229.5t-188.5 -96.5q-68 0 -112.5 51.5t-44.5 145.5q0 45 13 108.5t28 100.5l131 305q32 70 32 118q0 32 -11 50t-36 18q-37 0 -75.5 -35.5t-71.5 -94t-54.5 -106.5t-39.5 -99z" />
<glyph unicode="x" horiz-adv-x="1155" d="M51 121q0 68 37 112q39 49 94 50q27 0 49 -17q29 -20 29 -65q0 -70 -63 -99q-20 -10 -27.5 -17t-7.5 -28q0 -16 12 -24t33 -8q96 0 172 109.5t121 279.5l51 188q16 59 16 135q0 66 -25.5 107t-80.5 41q-80 0 -161 -90t-128 -203l-43 14q23 59 56.5 113.5t77.5 104.5 t99.5 80t114.5 30q88 0 131 -60.5t49 -146.5l9 -4q135 211 295 211q35 0 67.5 -13.5t48.5 -31.5q37 -41 37 -101q0 -68 -37 -112q-37 -49 -94 -49q-27 0 -49 16q-29 20 -29 66q0 61 60 90q23 10 31 21t8 32q0 16 -12.5 24.5t-33.5 8.5q-49 0 -95 -32t-82 -88t-64.5 -121.5 t-50.5 -147.5l-52 -189q-16 -55 -16 -135q0 -66 26.5 -106.5t80.5 -40.5q80 0 160.5 90t127.5 202l43 -14q-25 -59 -57.5 -113.5t-75.5 -104.5t-99 -80t-116 -30q-86 0 -131 60.5t-49 146.5l-8 4q-135 -211 -295 -211q-35 0 -69 13.5t-48 31.5q-37 42 -37 101z" />
<glyph unicode="y" horiz-adv-x="1048" d="M49 -307q0 57 33 90t78 33q41 0 61.5 -24.5t20.5 -57.5q0 -51 -39 -82q-18 -16 -19 -45q0 -66 88 -66q72 0 123 23.5t103 87.5q76 94 135 315l88 330l-12 4q-66 -133 -164.5 -229.5t-188.5 -96.5q-68 0 -112.5 51.5t-44.5 145.5q0 45 13 108.5t28 100.5l131 305 q32 70 32 118q0 32 -11 50t-36 18q-37 0 -75.5 -35.5t-71.5 -94t-54.5 -106.5t-39.5 -99l-41 12q37 104 79 186t102 140.5t124 58.5q55 0 93 -49t38 -148q0 -45 -12.5 -106.5t-28.5 -102.5l-131 -305q-33 -72 -33 -121q0 -77 70 -77h2q57 0 126.5 64.5t131 161.5t112 207.5 t76.5 205.5l68 245h135l-242 -909q-23 -88 -76 -195.5t-128 -185.5q-63 -68 -140.5 -97.5t-144.5 -29.5q-111 0 -178.5 53.5t-67.5 147.5z" />
<glyph unicode="z" d="M53 61q0 74 33 143.5t86 123t111.5 92.5t119.5 65q180 74 255 122t102 114q-4 6 -4 8q-55 -41 -105 -41q-31 0 -58.5 8.5t-41.5 18.5t-37 26q-55 45 -100 45q-49 0 -87 -19t-64.5 -55t-41 -62.5t-28.5 -63.5l-33 14q12 47 34.5 98.5t57.5 106.5t86 92t104 37 q92 0 174 -117q27 -35 44.5 -51t35.5 -16q59 0 60 36q0 20 -19 29q-32 16 -32 51q0 31 14 49.5t43 18.5q39 0 58.5 -27.5t19.5 -70.5q0 -102 -102.5 -217t-248.5 -177q-207 -86 -267 -127t-72 -96q86 -23 155 -59q104 -53 195 -54q49 0 91 24t69.5 63.5t46 76.5t32.5 80 l39 -16q-16 -51 -30.5 -92t-42 -94.5t-57.5 -88t-75 -59.5t-96 -25q-53 0 -99 20.5t-70.5 42t-55.5 56.5q-55 61 -86 62q-43 0 -43 -33q0 -23 31 -33q34 -14 34 -49q0 -29 -14 -47.5t-47 -18.5t-53.5 24.5t-20.5 61.5z" />
<glyph unicode="{" horiz-adv-x="860" d="M217 -145q0 66 33 148.5t71.5 148t71.5 141.5t33 131q0 61 -45 82.5t-135 21.5l10 37q43 0 71.5 3t64.5 12.5t58.5 30t42 53t29.5 85t10 121.5v99q0 115 29 203t86.5 149t131 102t175.5 72l13 -49q-57 -16 -92 -30.5t-70 -35t-53.5 -43t-35 -56.5t-23.5 -78t-9 -105v-125 q-12 -342 -287 -424l-2 -4q129 -45 129 -189q0 -70 -32.5 -155.5t-71.5 -149t-72 -135.5t-33 -119q0 -31 12.5 -53.5t39 -40.5t50 -29.5t62.5 -25.5l-39 -49q-223 80 -223 256z" />
<glyph unicode="|" horiz-adv-x="581" d="M295 -406v1901h90v-1901h-90z" />
<glyph unicode="}" horiz-adv-x="860" d="M-16 -352q57 16 92 30.5t69.5 35t53 43t35 56t23.5 77.5t9 106v125q12 342 287 424l2 4q-129 45 -129 188q0 70 33 156t71.5 149.5t71.5 135t33 118.5q0 31 -12.5 53.5t-39 41t-50 30t-62.5 25.5l39 49q223 -80 223 -256q0 -66 -32.5 -148.5t-71.5 -148t-72 -141.5 t-33 -131q0 -61 45 -83t136 -22l-11 -37q-43 0 -71.5 -3t-64.5 -12t-58.5 -29.5t-42 -53.5t-29.5 -85t-10 -122v-98q0 -115 -29 -203t-86 -149.5t-131 -102.5t-176 -71z" />
<glyph unicode="~" horiz-adv-x="1351" d="M123 518q0 80 61.5 141.5t171.5 61.5q61 0 141.5 -22.5t135.5 -45t149 -63.5q86 -39 132.5 -58.5t108.5 -38t103 -18.5q33 0 57.5 25.5t24.5 68.5q0 78 -86 123l25 43q63 -29 97 -77t34 -107q0 -80 -61.5 -141.5t-172.5 -61.5q-61 0 -142 22.5t-133 44t-151 64.5 q-188 82 -253 101q-53 14 -91 14q-33 0 -57 -25.5t-24 -68.5q0 -78 86 -123l-25 -43q-63 29 -97 77t-34 107z" />
<glyph unicode="&#xa2;" horiz-adv-x="1187" d="M279 324q0 266 180 456q70 74 137.5 112t151.5 42l67 246h49l-65 -246q76 0 140.5 -55.5t64.5 -149.5q0 -61 -35 -102t-82 -41q-39 0 -59.5 21.5t-20.5 49.5q0 51 65 101q23 18 23 47q0 35 -28.5 57.5t-82.5 22.5l-235 -860h14q100 0 182 65.5t134 167.5l43 -14 q-23 -47 -54.5 -90t-77 -86t-106.5 -68t-131 -25h-16l-62 -221h-49l63 230q-96 25 -153 120t-57 220zM426 201q0 -127 78 -164l229 848q-23 0 -56.5 -21.5t-66.5 -60.5q-74 -90 -131 -275q-53 -171 -53 -327z" />
<glyph unicode="&#xa3;" horiz-adv-x="1474" d="M-66 84q0 63 46.5 108.5t112 66t136.5 20.5q106 0 220 -31q80 139 145 407q-119 16 -184 17q-61 0 -98.5 -10.5t-90.5 -34.5l-16 45q82 57 205 57q88 0 198 -18q184 723 568 723q57 0 102 -16.5t71.5 -43t45 -58.5t24.5 -59.5t6 -52.5q0 -74 -41 -117t-94 -43 q-47 0 -86 25t-39 80q0 39 24.5 59.5t51.5 20.5q25 0 41 -8.5t37 -8.5q16 0 24.5 7.5t8.5 27.5q0 55 -43 98.5t-135 43.5q-51 0 -96.5 -19.5t-78 -49.5t-61.5 -79t-47.5 -94t-36.5 -108.5t-28.5 -108.5t-22.5 -111q-12 -74 -33 -139q111 -20 213 -20.5t188 45.5l17 -46 q-29 -23 -86.5 -40t-118.5 -17q-98 0 -229 23q-78 -246 -207 -408q55 -20 102 -39q92 -35 152.5 -53.5t116.5 -18.5q80 0 146 22t111.5 55.5t81 80.5t55 95.5t31.5 101.5l41 -12q-18 -98 -62 -196.5t-114 -160.5q-74 -68 -152.5 -96.5t-201.5 -28.5q-55 0 -118.5 18.5 t-108.5 40t-115 60.5l-59 31q-162 -150 -355 -150q-66 0 -115 29t-49 88zM-8 88q0 -25 10 -40t30.5 -21.5t36 -8.5t37.5 -2q160 0 277 134q-133 59 -244 59q-57 0 -102 -35t-45 -86z" />
<glyph unicode="&#xa5;" horiz-adv-x="1187" d="M131 0l19 66h155q55 0 72 57l82 299h-287l18 65h287l33 123h-287l19 66h274l-127 579q-6 27 -11 41.5t-19.5 26.5t-39.5 12h-129l19 66h532l-18 -66h-84q-55 0 -64 -35q-6 -20 3 -51l108 -516l344 418q43 55 43 102q0 16 -4 33t-20.5 33t-42.5 16h-86l18 66h475l-18 -66 h-78q-41 0 -75 -26.5t-81 -83.5l-452 -549h286l-18 -66h-287l-33 -123h287l-18 -65h-287l-82 -299q-16 -57 43 -57h156l-19 -66h-606z" />
<glyph unicode="&#xa8;" d="M381 1221q0 45 30.5 75.5t75.5 30.5t76 -30.5t31 -75.5t-31 -76t-76 -31t-75.5 31t-30.5 76zM766 1221q0 45 30.5 75.5t76 30.5t76 -30.5t30.5 -75.5t-30.5 -76t-76 -31t-76 31t-30.5 76z" />
<glyph unicode="&#xa9;" horiz-adv-x="1679" d="M147 729q0 156 57.5 297t156 243.5t235.5 164t292.5 61.5t293 -61.5t236 -164t155.5 -243.5t57 -297t-57 -297t-155.5 -243.5t-236 -164t-293 -61.5t-292.5 61.5t-235.5 164t-156 243.5t-57.5 297zM205 729q0 -143 53 -273t143.5 -225.5t218.5 -153t269 -57.5t269 57.5 t218 153t143.5 225.5t53.5 273t-53.5 273.5t-143.5 225.5t-218 152.5t-269 57.5t-269 -57.5t-218.5 -152.5t-143.5 -225.5t-53 -273.5zM500 692q0 229 111.5 372.5t306.5 143.5q82 0 167 -67q20 -14 41 -15q16 0 30.5 22.5t14.5 47.5h37v-336h-37q-12 119 -94 209t-159 90 q-238 0 -238 -467q0 -53 6 -106.5t23.5 -110.5t43 -100t66.5 -72t94 -29q66 0 116 27t79 72t44 93t24 103h49q-4 -61 -23.5 -118.5t-55.5 -109.5t-96.5 -84t-136.5 -32q-98 0 -180 41t-131 108.5t-75.5 149.5t-26.5 168z" />
<glyph unicode="&#xab;" d="M111 467q205 152 493 430l23 -20l-332 -410l111 -410l-35 -20q-72 145 -131 244.5t-129 185.5zM414 467q143 115 334 315l22 -20l-219 -295l59 -295l-35 -20q-79 204 -161 315z" />
<glyph unicode="&#xad;" horiz-adv-x="757" d="M115 401q0 72 36.5 122t102.5 50h360q31 0 44.5 13.5t13.5 44.5h37q0 -72 -37 -122t-103 -50h-360q-31 0 -44 -13.5t-13 -44.5h-37z" />
<glyph unicode="&#xae;" horiz-adv-x="1679" d="M147 729q0 156 57.5 297t156 243.5t235.5 164t292.5 61.5t293 -61.5t236 -164t155.5 -243.5t57 -297t-57 -297t-155.5 -243.5t-236 -164t-293 -61.5t-292.5 61.5t-235.5 164t-156 243.5t-57.5 297zM205 729q0 -143 53 -273t143.5 -225.5t218.5 -153t269 -57.5t269 57.5 t218 153t143.5 225.5t53.5 273t-53.5 273.5t-143.5 225.5t-218 152.5t-269 57.5t-269 -57.5t-218.5 -152.5t-143.5 -225.5t-53 -273.5zM459 266v49h86q25 0 35 10.5t10 34.5v746q0 25 -10.5 35t-34.5 10h-86v49h467q129 0 214 -58.5t85 -166.5q0 -45 -18.5 -83t-43 -60.5 t-58.5 -40t-57.5 -23.5t-43.5 -10v-8q29 -6 53 -17.5t54 -36t51.5 -71.5t27.5 -111q2 -14 4 -41t3 -41t4 -35.5t7 -34t12.5 -23.5t18.5 -17.5t27 -6.5q27 0 45 20.5t26.5 53.5t11.5 59.5t3 51.5h37q0 -31 -2.5 -58.5t-13.5 -66.5t-28.5 -66.5t-51 -47t-79.5 -19.5 q-63 0 -104 28q-76 53 -76 179v110q0 51 -13 88t-35.5 54.5t-44 24.5t-44.5 7h-160v-373q0 -25 10.5 -35t34.5 -10h90v-49h-413zM737 782h158q68 0 108.5 47.5t40.5 133.5q0 188 -151 188h-111q-25 0 -35 -10.5t-10 -34.5v-324z" />
<glyph unicode="&#xb4;" d="M598 1065l217 252q47 55 98 55q31 0 44.5 -17.5t13.5 -41.5q0 -51 -66 -94l-282 -179z" />
<glyph unicode="&#xb8;" d="M115 -303q0 37 24.5 70.5t61.5 33.5q29 0 43 -17t14 -46q0 -20 -15.5 -36.5t-33.5 -16.5q-8 0 -13.5 -6.5t-5.5 -16.5q0 -51 80 -51q57 0 85 33.5t28 76.5t-29 109q-20 43 -20 74q0 35 18 69l31 52l39 -25l-27 -43q-8 -14 -8 -31q0 -33 41 -73q57 -57 57 -111 q0 -74 -62.5 -125t-156.5 -51q-57 0 -104 35t-47 96z" />
<glyph unicode="&#xbb;" d="M147 172l220 295l-60 295l35 20q80 -205 162 -315q-143 -115 -334 -315zM291 57l332 410l-111 410l35 20q72 -145 131 -244.5t129 -185.5q-205 -152 -494 -430z" />
<glyph unicode="&#xd3;" horiz-adv-x="1454" d="M188 508q0 160 45.5 313.5t123 273t176 211t213 140.5t225.5 49q131 0 231.5 -76t151.5 -200.5t51 -272.5q0 -160 -45 -313.5t-123 -272t-176 -209t-213 -139.5t-225 -49q-131 0 -231.5 76t-152 199t-51.5 270zM385 393q0 -180 65.5 -272t188.5 -92q74 0 143.5 31.5 t118.5 79.5t94 116t72 127t51 125q90 254 90 557q0 180 -65.5 272.5t-188.5 92.5q-74 0 -143.5 -32t-118.5 -80t-94 -115.5t-71.5 -127t-51.5 -125.5q-90 -254 -90 -557zM987 1585l217 252q47 55 99 55q57 0 57 -59q0 -55 -66 -94l-282 -178z" />
<glyph unicode="&#xf3;" horiz-adv-x="946" d="M106 336q0 106 41 214.5t106.5 192.5t159 137.5t189.5 53.5q49 0 97.5 -22.5t87 -65.5t62 -113.5t23.5 -159.5q0 -106 -39.5 -214.5t-105 -192.5t-158 -137.5t-188.5 -53.5q-109 0 -192 94.5t-83 266.5zM254 213q0 -84 35 -136t100 -52q45 0 82 20.5t66.5 59t49 74.5 t42.5 87q43 98 69.5 216t26.5 214q0 84 -33 136.5t-98 52.5q-45 0 -83 -20.5t-67.5 -58.5t-50 -76t-43.5 -87q-43 -98 -69.5 -216t-26.5 -214zM614 1065l217 252q47 55 98 55q31 0 44.5 -17.5t13.5 -41.5q0 -51 -66 -94l-282 -179z" />
<glyph unicode="&#x104;" horiz-adv-x="1490" d="M-90 0l16 66h76q84 0 149.5 43t104.5 104l842 1245h49v-1304q4 -51 28.5 -69.5t69.5 -18.5h115l-17 -66h-245q-109 -61 -179.5 -143t-70.5 -160q0 -37 18.5 -54.5t46.5 -17.5q37 0 66 23q23 20 36 26.5t34 6.5q25 0 38 -16.5t13 -41.5q0 -45 -52.5 -87t-140.5 -42 q-68 0 -121 40t-53 120q0 166 260 336l-2 10h-254l17 66h127q41 0 63.5 18t22.5 76v340h-428l-140 -205q-70 -98 -69 -160q0 -70 82 -69h112l-16 -66h-598zM590 573h377v551z" />
<glyph unicode="&#x105;" horiz-adv-x="1097" d="M86 256q0 125 37 241.5t84 188.5q72 113 167 180.5t193 67.5q63 0 114.5 -44t74.5 -136l8 -4l45 159h135l-174 -645q-29 -115 -29 -164q0 -55 37 -55q57 0 116.5 91t106.5 237l41 -13q-100 -293 -235 -372q-78 -45 -131 -117t-53 -137q0 -29 12 -48.5t37 -19.5 q37 0 65 25q37 35 64 35q43 0 43 -45q0 -43 -49.5 -87.5t-130.5 -44.5q-53 0 -92.5 37t-39.5 99q0 145 187 284v11q-96 18 -96 204l2 56l-7 4q-16 -39 -44.5 -80t-67.5 -86t-90 -74t-101 -29q-109 0 -169 77t-60 204zM233 174q0 -59 23 -104t72 -45q74 0 145.5 75.5 t128.5 206.5q41 94 72 206t31 183q0 90 -37 139.5t-101 49.5q-35 0 -67.5 -22.5t-61 -58.5t-50 -72t-40.5 -77q-53 -115 -84 -243.5t-31 -237.5z" />
<glyph unicode="&#x106;" horiz-adv-x="1372" d="M188 516q0 139 43 284.5t121 268.5t175.5 219t213 151.5t230.5 55.5q133 0 227 -94l37 -37q20 -20 31.5 -27.5t27.5 -7.5q27 0 48.5 31t30.5 60.5t13 58.5h48l-131 -627h-48q2 41 2 129q0 72 -19 174t-69 170q-78 104 -206 105q-123 0 -221.5 -75t-196.5 -257 q-68 -127 -114 -314.5t-46 -382.5q0 -98 17.5 -168.5t43 -108.5t64.5 -60.5t71.5 -28.5t75.5 -6q115 0 224.5 67.5t187.5 172t121 227.5l63 -23q-27 -80 -64.5 -151.5t-95 -138t-125 -115t-156.5 -77t-189 -28.5q-61 0 -121 19.5t-117 62.5t-100 105.5t-70 156.5t-27 209z M975 1585l217 252q47 55 99 55q57 0 57 -59q0 -55 -66 -94l-282 -178z" />
<glyph unicode="&#x107;" horiz-adv-x="868" d="M106 324q0 123 45.5 243.5t135.5 212.5q72 76 144.5 115t162.5 39q37 0 69.5 -10.5t61.5 -33t47.5 -64.5t18.5 -97q0 -61 -35 -102t-82 -41q-39 0 -59.5 24.5t-20.5 53.5q0 57 65 106q23 18 23 53q0 20 -22.5 41t-73.5 21q-160 0 -279 -357q-23 -66 -38 -168t-15 -159 q0 -90 41 -133t96 -43t108.5 26.5t86 62.5t62.5 82t42 72.5t21 48.5l43 -14q-49 -139 -149.5 -233.5t-223.5 -94.5t-199 102t-76 247zM614 1065l217 252q47 55 98 55q31 0 44.5 -17.5t13.5 -41.5q0 -51 -66 -94l-282 -179z" />
<glyph unicode="&#x118;" horiz-adv-x="1433" d="M-20 0l16 66h156q53 0 69 55l330 1216q18 55 -39 56h-156l17 65h1130l-94 -467h-51q6 43 6 99q0 88 -14.5 148t-45 93t-69.5 47.5t-92 14.5h-336q-55 0 -70 -56l-147 -546h221q37 0 67.5 10t51 25.5t41 42t32 48t23.5 56.5t17.5 54.5t15.5 53.5h51l-180 -671h-51 q20 90 20 153q0 72 -27.5 113t-95.5 41h-207l-161 -596q-14 -55 38 -55h381q53 0 125 26.5t129 79.5q57 57 111.5 151.5t81.5 159.5l24 66h50l-172 -549h-177q-109 -61 -179 -143t-70 -160q0 -37 18 -54.5t47 -17.5q37 0 66 23q23 20 36 26.5t33 6.5q25 0 38 -16.5t13 -41.5 q0 -45 -52 -87t-140 -42q-68 0 -121 40t-53 120q0 166 260 336l-2 10h-913z" />
<glyph unicode="&#x119;" horiz-adv-x="839" d="M106 324q0 123 45.5 243.5t135.5 212.5q147 154 307 154q82 0 134 -41t52 -131q0 -160 -207 -256q-106 -51 -290 -66q-29 -115 -29 -239q0 -90 41 -133t96 -43t108.5 26.5t86 62.5t62.5 82t42 72.5t21 48.5l43 -14q-57 -160 -168 -250l-103 -82q-61 -45 -108 -110.5 t-47 -126.5q0 -29 12 -48.5t37 -19.5q37 0 65 25q37 35 64 35q43 0 43 -45q0 -43 -49 -87.5t-131 -44.5q-53 0 -92 37t-39 99q0 147 188 288l-2 7q-29 -4 -43 -5q-123 0 -199 102t-76 247zM295 492q150 10 240 51q63 29 105 90t42 141q0 57 -23.5 84t-62.5 27 q-84 0 -155.5 -76t-104.5 -168q-25 -69 -41 -149z" />
<glyph unicode="&#x141;" horiz-adv-x="1392" d="M-20 0l16 66h156q53 0 69 55l139 516l-176 -88l-24 65l225 113l166 610q18 55 -39 56h-156l19 65h604l-16 -65h-156q-55 0 -70 -56l-135 -501l324 163l24 -65l-372 -189l-170 -624q-14 -55 38 -55h381q53 0 125 26.5t129 79.5q57 57 111.5 151.5t81.5 159.5l24 66h50 l-172 -549h-1196z" />
<glyph unicode="&#x142;" horiz-adv-x="593" d="M37 635l213 102l172 627q8 25 0 35t-33 10h-180l14 49h359l-174 -645l221 109l14 -50l-254 -122l-127 -467q-33 -131 -33 -183q0 -55 39 -55t82 51t77 121t62 156l41 -13q-18 -53 -34.5 -92t-47 -98t-60.5 -98t-72 -68t-87 -29q-119 0 -118 209q0 41 20 123l100 367 l-180 -88z" />
<glyph unicode="&#x143;" horiz-adv-x="1617" d="M-20 0l16 66h98q66 0 115 55t72 137l292 1079q8 29 -2 42.5t-36 13.5h-179l17 65h372l429 -1194l256 936q14 49 14 88q0 104 -105 105h-98l16 65h553l-16 -65h-98q-57 0 -110.5 -51.5t-76.5 -141.5l-335 -1237h-82l-453 1272h-10l-269 -977q-12 -45 -12 -88 q0 -104 103 -104h98l-17 -66h-552zM1081 1585l217 252q47 55 99 55q57 0 57 -59q0 -55 -66 -94l-282 -178z" />
<glyph unicode="&#x144;" horiz-adv-x="1171" d="M74 549q135 385 301 385q119 0 119 -209q0 -41 -19.5 -126t-34.5 -122l6 -6q8 12 35 64.5t45.5 85t51 85t63.5 87t67.5 70.5t75.5 53.5t80 17.5q61 0 97 -50t36 -147q0 -45 -13 -108.5t-28 -100.5l-131 -305q-33 -72 -32 -121q0 -29 11 -47t36 -18q37 0 75.5 36t71.5 94 t54.5 106.5t39.5 99.5l41 -13q-37 -104 -79 -186t-102 -140.5t-124 -58.5q-55 0 -93 49.5t-38 147.5q0 45 12.5 106.5t28.5 102.5l131 305q33 72 33 121q0 66 -45 65q-125 0 -260 -231q-82 -137 -145.5 -275.5t-92.5 -230.5l-41 -135h-135l172 635q31 123 31 174 q0 55 -39 55q-41 0 -84 -51t-76 -120.5t-61 -155.5zM623 1065l217 252q47 55 98 55q31 0 44.5 -17.5t13.5 -41.5q0 -51 -66 -94l-282 -179z" />
<glyph unicode="&#x15a;" horiz-adv-x="1269" d="M70 -20l163 647h48q-27 -150 18 -290t141.5 -224t212.5 -84q174 0 263.5 71.5t89.5 210.5q0 82 -42 134.5t-124 103.5l-238 145q-127 76 -183.5 156t-56.5 215q0 111 34 193.5t95.5 134t142.5 77t177 25.5q74 0 146.5 -39t117.5 -80q35 -33 60 -33q33 0 61.5 45.5 t42.5 90.5h47l-119 -533h-47q6 98 -33.5 209t-118.5 193t-175 82q-80 0 -143.5 -25t-100.5 -63.5t-56.5 -86t-19.5 -98.5q0 -43 14.5 -80t32 -61.5t50 -51t55 -40t57.5 -33.5l192 -113q55 -33 90 -57.5t72 -59t56.5 -69.5t32 -82t12.5 -104q0 -205 -132.5 -324t-367.5 -119 q-68 0 -133.5 18.5t-112.5 48t-69.5 47t-36.5 32.5q-41 41 -62 41q-23 0 -47 -37t-36.5 -69t-22.5 -64h-47zM848 1585l217 252q47 55 99 55q57 0 57 -59q0 -55 -66 -94l-282 -178z" />
<glyph unicode="&#x15b;" horiz-adv-x="860" d="M49 217q0 49 28.5 92t84.5 43q31 0 53.5 -21.5t22.5 -58.5q0 -51 -43 -65q-27 -6 -40.5 -21.5t-13.5 -48.5q0 -31 21.5 -55.5t56.5 -35.5t67.5 -16t63.5 -5q109 0 166 49t57 123q0 90 -65 137l-170 129q-96 61 -96 186q0 68 28.5 123t73.5 90t100.5 53.5t112.5 18.5 q61 0 114.5 -24.5t82 -62.5t45 -76t16.5 -66q0 -47 -26.5 -82t-79.5 -35q-33 0 -57.5 21.5t-24.5 54.5q0 41 26 61q8 8 29 20q25 14 25 33q0 47 -52.5 77t-109.5 30q-82 0 -143.5 -47t-61.5 -131q0 -35 8 -57.5t18.5 -33t32.5 -24.5l191 -143q29 -23 47 -41.5t34.5 -53.5 t16.5 -75q0 -55 -23.5 -108.5t-66.5 -97.5t-111.5 -71t-148.5 -27q-137 0 -213 73t-76 169zM565 1065l217 252q47 55 98 55q31 0 44.5 -17.5t13.5 -41.5q0 -51 -66 -94l-282 -179z" />
<glyph unicode="&#x179;" horiz-adv-x="1392" d="M74 0l16 63l1040 1330h-368q-90 0 -164 -37t-156 -123q-53 -53 -91 -116.5t-50 -96.5t-12 -37h-51l172 475h966l-16 -65l-1036 -1327h454q147 0 258 96q63 55 122 151.5t87 165.5l27 70h51l-176 -549h-1073zM852 1585l217 252q47 55 99 55q57 0 57 -59q0 -55 -66 -94 l-282 -178z" />
<glyph unicode="&#x17a;" d="M53 61q0 74 33 143.5t86 123t111.5 92.5t119.5 65q180 74 255 122t102 114q-4 6 -4 8q-55 -41 -105 -41q-31 0 -58.5 8.5t-41.5 18.5t-37 26q-55 45 -100 45q-49 0 -87 -19t-64.5 -55t-41 -62.5t-28.5 -63.5l-33 14q12 47 34.5 98.5t57.5 106.5t86 92t104 37 q92 0 174 -117q27 -35 44.5 -51t35.5 -16q59 0 60 36q0 20 -19 29q-33 16 -32 53q0 29 14 47.5t43 18.5q39 0 58.5 -27.5t19.5 -70.5q0 -102 -102.5 -217t-248.5 -177q-207 -86 -267 -127t-72 -96q86 -23 155 -59q104 -53 195 -54q49 0 91 24t69.5 63.5t46 76.5t32.5 80 l39 -16q-16 -51 -30.5 -92t-42 -94.5t-57.5 -88t-75 -59.5t-96 -25q-53 0 -99 20.5t-70.5 42t-55.5 56.5q-55 61 -86 62q-43 0 -43 -33q0 -23 31 -33q35 -14 34 -51q0 -27 -14 -45.5t-47 -18.5t-53.5 24.5t-20.5 61.5zM573 1065l217 252q47 55 98 55q31 0 44.5 -17.5 t13.5 -41.5q0 -51 -66 -94l-282 -179z" />
<glyph unicode="&#x17b;" horiz-adv-x="1392" d="M74 0l16 63l1040 1330h-368q-90 0 -164 -37t-156 -123q-53 -53 -91 -116.5t-50 -96.5t-12 -37h-51l172 475h966l-16 -65l-1036 -1327h454q147 0 258 96q63 55 122 151.5t87 165.5l27 70h51l-176 -549h-1073zM828 1741q0 45 30.5 75.5t75.5 30.5t76 -30.5t31 -75.5 t-31 -76t-76 -31t-75.5 31t-30.5 76z" />
<glyph unicode="&#x17c;" d="M53 61q0 74 33 143.5t86 123t111.5 92.5t119.5 65q180 74 255 122t102 114q-4 6 -4 8q-55 -41 -105 -41q-31 0 -58.5 8.5t-41.5 18.5t-37 26q-55 45 -100 45q-49 0 -87 -19t-64.5 -55t-41 -62.5t-28.5 -63.5l-33 14q12 47 34.5 98.5t57.5 106.5t86 92t104 37 q92 0 174 -117q27 -35 44.5 -51t35.5 -16q59 0 60 36q0 20 -19 29q-33 16 -32 53q0 29 14 47.5t43 18.5q39 0 58.5 -27.5t19.5 -70.5q0 -102 -102.5 -217t-248.5 -177q-207 -86 -267 -127t-72 -96q86 -23 155 -59q104 -53 195 -54q49 0 91 24t69.5 63.5t46 76.5t32.5 80 l39 -16q-16 -51 -30.5 -92t-42 -94.5t-57.5 -88t-75 -59.5t-96 -25q-53 0 -99 20.5t-70.5 42t-55.5 56.5q-55 61 -86 62q-43 0 -43 -33q0 -23 31 -33q35 -14 34 -51q0 -27 -14 -45.5t-47 -18.5t-53.5 24.5t-20.5 61.5zM548 1221q0 45 31 75.5t76 30.5t75.5 -30.5t30.5 -75.5 t-30.5 -76t-75.5 -31t-76 31t-31 76z" />
<glyph unicode="&#x2c6;" d="M365 1067q182 96 311 309h82q18 -213 143 -309l-24 -27q-123 74 -199 189q-145 -117 -301 -189z" />
<glyph unicode="&#x2da;" d="M479 1225q0 82 57.5 139t141.5 57t141.5 -57t57.5 -139t-57.5 -141.5t-141.5 -59.5t-141.5 59.5t-57.5 141.5zM528 1224.5q0 -65.5 43 -108.5t106.5 -43t106.5 43t43 108.5t-43 106.5t-106.5 41t-106.5 -41t-43 -106.5z" />
<glyph unicode="&#x2dc;" d="M406 1139q0 80 43 136t120 56q53 0 102.5 -20.5t94.5 -41t86 -20.5q35 0 50.5 20.5t23.5 61.5h45q0 -80 -43 -136t-121 -56q-53 0 -102.5 20.5t-94.5 41t-86 20.5q-35 0 -50 -20.5t-23 -61.5h-45z" />
<glyph unicode="&#x2000;" horiz-adv-x="946" />
<glyph unicode="&#x2001;" horiz-adv-x="1892" />
<glyph unicode="&#x2002;" horiz-adv-x="946" />
<glyph unicode="&#x2003;" horiz-adv-x="1892" />
<glyph unicode="&#x2004;" horiz-adv-x="630" />
<glyph unicode="&#x2005;" horiz-adv-x="473" />
<glyph unicode="&#x2006;" horiz-adv-x="315" />
<glyph unicode="&#x2007;" horiz-adv-x="315" />
<glyph unicode="&#x2008;" horiz-adv-x="236" />
<glyph unicode="&#x2009;" horiz-adv-x="378" />
<glyph unicode="&#x200a;" horiz-adv-x="105" />
<glyph unicode="&#x2010;" horiz-adv-x="757" d="M115 401q0 72 36.5 122t102.5 50h360q31 0 44.5 13.5t13.5 44.5h37q0 -72 -37 -122t-103 -50h-360q-31 0 -44 -13.5t-13 -44.5h-37z" />
<glyph unicode="&#x2011;" horiz-adv-x="757" d="M115 401q0 72 36.5 122t102.5 50h360q31 0 44.5 13.5t13.5 44.5h37q0 -72 -37 -122t-103 -50h-360q-31 0 -44 -13.5t-13 -44.5h-37z" />
<glyph unicode="&#x2012;" horiz-adv-x="757" d="M115 401q0 72 36.5 122t102.5 50h360q31 0 44.5 13.5t13.5 44.5h37q0 -72 -37 -122t-103 -50h-360q-31 0 -44 -13.5t-13 -44.5h-37z" />
<glyph unicode="&#x2013;" horiz-adv-x="1269" d="M172 500v73h1024v-73h-1024z" />
<glyph unicode="&#x2014;" horiz-adv-x="2048" d="M188 479v74h1803v-74h-1803z" />
<glyph unicode="&#x2018;" horiz-adv-x="573" d="M303 1030q0 84 24.5 158t60.5 123t83 90t83 61.5t69 32.5l16 -33q-45 -23 -84 -50.5t-80 -65t-64.5 -86t-23.5 -99.5q0 -31 19 -47q16 -14 59 -14t69.5 -32t26.5 -75q0 -59 -34.5 -94t-90.5 -35q-63 0 -98 53.5t-35 112.5z" />
<glyph unicode="&#x2019;" horiz-adv-x="573" d="M295 897q45 23 84 50.5t80 65t64.5 86t23.5 99.5q0 31 -18 47q-16 14 -59.5 14t-70 32t-26.5 75q0 59 35 94t90 35q63 0 98 -53.5t35 -112.5q0 -84 -24.5 -158t-60.5 -123t-83 -90t-83 -61.5t-69 -32.5z" />
<glyph unicode="&#x201a;" horiz-adv-x="573" d="M45 -311q45 23 84 50.5t80 65t64.5 86t23.5 99.5q0 31 -18 47q-16 14 -59.5 14t-70 32t-26.5 75q0 59 35 94t90 35q63 0 98 -53.5t35 -112.5q0 -84 -24.5 -158t-60.5 -123t-83 -90t-83 -61.5t-69 -32.5z" />
<glyph unicode="&#x201c;" d="M303 1030q0 84 24.5 158t60.5 123t83 90t83 61.5t69 32.5l16 -33q-45 -23 -84 -50.5t-80 -65t-64.5 -86t-23.5 -99.5q0 -31 19 -47q16 -14 59 -14t69.5 -32t26.5 -75q0 -59 -34.5 -94t-90.5 -35q-63 0 -98 53.5t-35 112.5zM631 1030q0 84 24.5 158t60.5 123t83 90 t83 61.5t69 32.5l16 -33q-45 -23 -84 -50.5t-80 -65t-64.5 -86t-23.5 -99.5q0 -31 19 -47q16 -14 59 -14t69.5 -32t26.5 -75q0 -59 -34.5 -94t-90.5 -35q-63 0 -98 53.5t-35 112.5z" />
<glyph unicode="&#x201d;" d="M295 897q45 23 84 50.5t80 65t64.5 86t23.5 99.5q0 31 -18 47q-16 14 -59.5 14t-70 32t-26.5 75q0 59 35 94t90 35q63 0 98 -53.5t35 -112.5q0 -84 -24.5 -158t-60.5 -123t-83 -90t-83 -61.5t-69 -32.5zM623 897q45 23 84 50.5t80 65t64.5 86t23.5 99.5q0 31 -18 47 q-16 14 -59.5 14t-70 32t-26.5 75q0 59 35 94t90 35q63 0 98 -53.5t35 -112.5q0 -84 -24.5 -158t-60.5 -123t-83 -90t-83 -61.5t-69 -32.5z" />
<glyph unicode="&#x201e;" d="M45 -311q45 23 84 50.5t80 65t64.5 86t23.5 99.5q0 31 -18 47q-16 14 -59.5 14t-70 32t-26.5 75q0 59 35 94t90 35q63 0 98 -53.5t35 -112.5q0 -84 -24.5 -158t-60.5 -123t-83 -90t-83 -61.5t-69 -32.5zM356 -311q45 23 84 50.5t80 65t64.5 86t23.5 99.5q0 31 -18 47 q-16 14 -59.5 14t-70 32t-26.5 75q0 59 35 94t90 35q63 0 98 -53.5t35 -112.5q0 -84 -24.5 -158t-60.5 -123t-83 -90t-83 -61.5t-69 -32.5z" />
<glyph unicode="&#x2026;" horiz-adv-x="1679" d="M123 102.5q0 55.5 36 91t91 35.5t91 -35.5t36 -91t-36 -91.5t-91 -36t-91 36t-36 91.5zM696 102.5q0 55.5 36 91t91 35.5t91 -35.5t36 -91t-36 -91.5t-91 -36t-91 36t-36 91.5zM1270 102.5q0 55.5 36 91t91 35.5t91 -35.5t36 -91t-36 -91.5t-91 -36t-91 36t-36 91.5z" />
<glyph unicode="&#x202f;" horiz-adv-x="378" />
<glyph unicode="&#x2039;" horiz-adv-x="675" d="M111 467q41 29 83 63.5t71.5 60t81.5 72t75.5 68t91.5 82.5t90 84l23 -20l-332 -410l111 -410l-35 -20q-12 23 -46 83t-45.5 82.5t-38 68.5t-43 72t-39.5 60.5t-48 63.5z" />
<glyph unicode="&#x203a;" horiz-adv-x="675" d="M66 57l331 410l-110 410l35 20q12 -23 45.5 -83t45 -82.5t38 -69t43 -72t40 -60t48.5 -63.5q-41 -29 -83 -63.5t-72 -60.5t-82 -72t-75.5 -67.5t-91 -83t-90.5 -83.5z" />
<glyph unicode="&#x205f;" horiz-adv-x="473" />
<glyph unicode="&#x20ac;" horiz-adv-x="1187" d="M76 586l28 65h62q10 41 35 115h-76l29 65h71q102 262 298 432.5t405 170.5q141 0 256 -119q18 -23 35 -23q51 0 77 127h47l-110 -450h-49q0 129 -45 225q-37 80 -95.5 127t-132.5 47q-145 0 -268 -142.5t-203 -394.5h502l-31 -65h-491q-29 -78 -35 -115h473l-29 -65h-458 q-33 -119 -33 -238q0 -143 60.5 -229t174.5 -86q70 0 137.5 30.5t121 82t94.5 106.5t71 115l54 -17q-31 -68 -76 -131t-105.5 -122.5t-141.5 -94.5t-171 -35q-205 0 -310.5 125t-105.5 338q0 90 15 156h-80z" />
<glyph unicode="&#x2122;" horiz-adv-x="1986" d="M266 1102l15 360h727l12 -360h-41q-12 111 -61 209q-27 51 -61 76.5t-95 25.5q-25 0 -35 -10t-10 -35v-651q0 -25 10 -35t35 -10h86v-49h-410v49h86q25 0 35 10t10 35v651q0 25 -10 35t-35 10q-61 0 -95 -25.5t-60 -76.5q-20 -45 -37 -96.5t-21 -81.5l-4 -31h-41z M1159 623v49h41q45 0 61.5 27.5t16.5 82.5v586q0 25 -10.5 35t-34.5 10h-74v49h283l209 -604l190 604h293v-49h-74q-25 0 -35 -10t-10 -35v-651q0 -25 10.5 -35t34.5 -10h74v-49h-385v49h74q25 0 35 10t10 35v639l-246 -750h-37l-250 717v-541q0 -55 16.5 -82.5t61.5 -27.5 h41v-49h-295z" />
<glyph unicode="&#xe000;" horiz-adv-x="931" d="M0 0v932h932v-932h-932z" />
</font>
</defs>
</svg>
